<?xml version="1.0" encoding="UTF-8" standalone="no"?>
<!-- Created with Inkscape (http://www.inkscape.org/) -->

<svg
   width="210mm"
   height="297mm"
   viewBox="0 0 210 297"
   version="1.1"
   id="svg1"
   xml:space="preserve"
   inkscape:version="1.3.2 (091e20e, 2023-11-25, custom)"
   sodipodi:docname="ClassroomAutomation1.svg"
   xmlns:inkscape="http://www.inkscape.org/namespaces/inkscape"
   xmlns:sodipodi="http://sodipodi.sourceforge.net/DTD/sodipodi-0.dtd"
   xmlns="http://www.w3.org/2000/svg"
   xmlns:svg="http://www.w3.org/2000/svg"><sodipodi:namedview
     id="namedview1"
     pagecolor="#ffffff"
     bordercolor="#000000"
     borderopacity="0.25"
     inkscape:showpageshadow="2"
     inkscape:pageopacity="0.0"
     inkscape:pagecheckerboard="0"
     inkscape:deskcolor="#d1d1d1"
     inkscape:document-units="mm"
     showguides="false"
     inkscape:zoom="0.69130191"
     inkscape:cx="306.66775"
     inkscape:cy="757.99009"
     inkscape:window-width="1920"
     inkscape:window-height="991"
     inkscape:window-x="-9"
     inkscape:window-y="-9"
     inkscape:window-maximized="1"
     inkscape:current-layer="layer1" /><defs
     id="defs1"><inkscape:path-effect
       effect="powerstroke"
       id="path-effect10"
       is_visible="true"
       lpeversion="1.3"
       scale_width="1"
       interpolator_type="CentripetalCatmullRom"
       interpolator_beta="0.75"
       start_linecap_type="round"
       end_linecap_type="round"
       offset_points="11.416366,1.4352448"
       linejoin_type="spiro"
       miter_limit="4"
       not_jump="true"
       sort_points="true"
       message="&lt;b&gt;Ctrl + click&lt;/b&gt; on existing node and move it" /><inkscape:path-effect
       effect="simplify"
       id="path-effect9"
       is_visible="true"
       lpeversion="1.3"
       threshold="0.012"
       steps="1"
       smooth_angles="0"
       helper_size="0"
       simplify_individual_paths="false"
       simplify_just_coalesce="false"
       step="1" /><clipPath
       clipPathUnits="userSpaceOnUse"
       id="clipPath45"><path
         id="path46"
         style="fill:#ff0000;fill-opacity:1;fill-rule:nonzero;stroke:none;stroke-width:0.264583"
         d="M -80.52408,439.18132 V 279.4319 h -5.29e-4 c -0.275418,0.1057 -0.573466,0.14203 -0.874366,0.15038 -0.30089,0.008 -0.604626,-0.0114 -0.891418,-0.0186 -1.09397,-0.0623 -2.187821,-0.14081 -3.275251,-0.27853 -0.921771,-0.0998 -1.850726,-0.16827 -2.778125,-0.16227 -1.214459,0 -2.428748,2e-5 -3.643188,0 -1.081209,-1e-5 -2.162548,-5.3e-4 -3.243742,-5.3e-4 -1.083997,-1.1e-4 -2.168022,-2.6e-4 -3.251993,-10e-4 -0.642171,0 -1.284367,-0.001 -1.926508,-0.006 -0.78058,-0.007 -1.56104,-0.0161 -2.34146,-0.0346 -1.10236,-0.0277 -2.20422,-0.0683 -3.3047,-0.14004 -0.65691,-0.0423 -1.31183,-0.1113 -1.97096,-0.0817 -0.51136,0.003 -1.02314,0.006 -1.53426,0.0238 -0.45559,0.0172 -0.91073,0.0424 -1.36528,0.078 -1.17348,0.054 -2.29529,-0.16404 -3.14658,-1.04076 -0.55883,-0.68285 -0.96494,-1.36318 -1.11054,-2.24845 -0.0983,-0.43574 -0.23955,-0.85943 -0.38137,-1.2826 -0.10912,-0.40115 -0.1841,-0.81178 -0.33539,-1.20045 -0.19706,-0.66502 -0.36957,-1.34233 -0.46196,-2.03037 -0.0116,-0.16669 -0.003,-0.3336 -0.008,-0.50022 -1.10186,-0.15985 -2.20676,-0.29624 -3.31605,-0.39946 -1.86068,-0.25303 -3.71486,-0.55813 -5.56041,-0.90486 -1.22401,-0.25866 -2.45631,-0.46916 -3.67418,-0.75602 -0.92105,-0.23461 -1.85833,-0.35318 -2.80345,-0.42788 -1.14689,-0.0712 -2.29603,-0.0959 -3.44474,-0.11524 -0.95187,-0.0151 -1.90421,-0.0192 -2.85615,-0.0222 -0.66231,-0.003 -1.32467,-0.003 -1.98697,-0.004 -0.24845,0.0114 -0.50446,-0.0264 -0.7488,0.0372 -0.01,0.003 0.0343,0.0121 0.0254,0.0171 -0.054,0.0278 -0.11552,0.0394 -0.17312,0.0589 -0.64397,0.2342 -1.29484,0.44771 -1.94664,0.65888 -0.66606,0.19237 -1.3585,0.26156 -1.99935,0.52761 -1.04749,0.32287 -2.10257,0.61982 -3.14968,0.94516 -1.45069,0.46563 -2.9282,0.83745 -4.38632,1.27796 -2.21271,0.53305 -4.47889,0.77973 -6.73187,1.07436 -1.80149,0.22945 -3.61402,0.34414 -5.42705,0.42994 -1.21621,0.12985 -2.42732,0.30393 -3.63752,0.48059 -1.82936,0.23677 -3.67472,0.29404 -5.51646,0.34934 -1.60197,0.0422 -3.20402,0.0632 -4.80642,0.0791 -0.459,0.004 -0.9181,0.006 -1.37716,0.008 V 439.1808 Z" /></clipPath></defs><g
     inkscape:label="Layer 1"
     inkscape:groupmode="layer"
     id="layer1"><g
       id="g1"><path
         id="rect1"
         style="fill:none;fill-opacity:1;stroke:#000000;stroke-width:0.3;stroke-dasharray:none;stroke-opacity:1"
         d="M 0.15000001,127.35286 V 292.04771 H 75.096846 V 296.85 h 29.801804 v -4.80229 h 74.94684 V 127.35286 Z M 57.648816,152.19733 h 64.697864 v 34.69763 H 57.648816 Z m 79.606514,11.86698 h 4.8457 v 9.84643 h -4.8457 z M 28.070259,180.50517 h 9.846428 v 4.84621 h -9.846428 z m -3.030822,41.87289 H 154.95606 v 7.91683 H 25.039437 Z" /><g
         id="g8"
         transform="translate(7.0054006,32.722004)"><rect
           style="fill:none;fill-opacity:1;stroke:#000000;stroke-width:0.3;stroke-dasharray:none;stroke-dashoffset:0;stroke-opacity:1"
           id="rect7"
           width="34.838669"
           height="44.838669"
           x="22.934418"
           y="35.112869" /><rect
           style="fill:none;fill-opacity:1;stroke:#000000;stroke-width:0.347887;stroke-dasharray:none;stroke-dashoffset:0;stroke-opacity:1"
           id="rect8"
           width="23.652115"
           height="23.652113"
           x="28.527695"
           y="45.706146" /></g><path
         id="rect9"
         style="fill:none;fill-opacity:1;stroke:#000000;stroke-width:0.3;stroke-dasharray:none;stroke-dashoffset:0;stroke-opacity:1"
         d="m 0.14370528,67.856343 v 0.05839 L 15.061138,112.6519 h 14.87868 V 67.856343 Z" /><path
         id="rect9-9"
         style="fill:none;fill-opacity:1;stroke:#000000;stroke-width:0.3;stroke-dasharray:none;stroke-dashoffset:0;stroke-opacity:1"
         d="m 94.574598,67.856343 v 0.05839 L 79.657168,112.6519 H 64.778487 V 67.856343 Z" /><rect
         style="fill:none;fill-opacity:1;stroke:#000000;stroke-width:0.300388;stroke-dasharray:none;stroke-dashoffset:0;stroke-opacity:1"
         id="rect10"
         width="44.699612"
         height="29.699612"
         x="94.874016"
         y="68.251701" /><rect
         style="fill:none;fill-opacity:1;stroke:#000000;stroke-width:0.298831;stroke-dasharray:none;stroke-dashoffset:0;stroke-opacity:1"
         id="rect10-2"
         width="44.701172"
         height="14.701169"
         x="94.874016"
         y="97.951317" /><rect
         style="fill:none;fill-opacity:1;stroke:#000000;stroke-width:0.297804;stroke-dasharray:none;stroke-dashoffset:0;stroke-opacity:1"
         id="rect11"
         width="29.702194"
         height="14.702195"
         x="89.55191"
         y="112.6519" /><rect
         style="fill:none;fill-opacity:1;stroke:#000000;stroke-width:0.297804;stroke-dasharray:none;stroke-dashoffset:0;stroke-opacity:1"
         id="rect11-0"
         width="29.702194"
         height="14.702195"
         x="119.2541"
         y="112.6519" /><rect
         style="fill:none;fill-opacity:1;stroke:#000000;stroke-width:0.299045;stroke-dasharray:none;stroke-dashoffset:0;stroke-opacity:1"
         id="rect12"
         width="44.700954"
         height="14.700955"
         x="0.15000001"
         y="112.6519" /><rect
         style="fill:none;fill-opacity:1;stroke:#000000;stroke-width:0.299045;stroke-dasharray:none;stroke-dashoffset:0;stroke-opacity:1"
         id="rect12-1"
         width="44.700954"
         height="14.700955"
         x="44.850956"
         y="112.6519" /><g
         id="g6"
         transform="matrix(-1.0641614,0,0,-1.1887717,176.62253,635.50032)"><text
           xml:space="preserve"
           style="font-size:15.0432px;font-family:'Gill Sans MT';-inkscape-font-specification:'Gill Sans MT';text-align:center;text-anchor:middle;fill:#ff2a2a;fill-opacity:1;fill-rule:nonzero;stroke:none;stroke-width:0.452802;stroke-dasharray:none;stroke-opacity:1"
           x="-79.310272"
           y="-292.1795"
           id="text6"
           transform="scale(-0.92257126,-1.0839271)"><tspan
             sodipodi:role="line"
             id="tspan6"
             style="fill:#ff2a2a;fill-opacity:1;stroke:none;stroke-width:0.4528"
             x="-79.310272"
             y="-292.1795">Idea Lab Automation</tspan></text><path
           style="fill:#ff0000"
           d="m -151.81359,245.73326 c 2.94567,0.62329 4.96794,3.04266 5.2908,6.32973 0.0306,0.31176 0.0117,0.93557 -0.0422,1.38625 -0.35102,2.93997 -2.14767,5.14623 -4.79912,5.89329 -0.86418,0.24349 -2.4243,0.26198 -3.23619,0.0384 -0.72882,-0.20073 -1.57204,-0.63628 -2.05233,-1.06009 -0.21669,-0.19121 -0.40775,-0.34766 -0.42456,-0.34766 -0.0168,0 -0.0421,0.23813 -0.0561,0.52917 -0.014,0.29104 -0.0541,0.55839 -0.0891,0.5941 -0.035,0.0357 -1.07066,0.0548 -2.30156,0.0423 l -2.238,-0.0226 v -6.51933 -6.51933 l 2.30717,-0.0225 2.30717,-0.0225 v 0.67869 c 0,0.37329 0.0249,0.6787 0.0554,0.6787 0.0305,0 0.19032,-0.15765 0.35524,-0.35032 0.39228,-0.45829 1.06805,-0.88417 1.82004,-1.14703 0.75582,-0.26419 2.24591,-0.34063 3.10335,-0.1592 z m -3.82153,4.18621 c -0.59701,0.28785 -1.05348,0.72509 -1.31681,1.26135 -0.215,0.43783 -0.238,0.57055 -0.238,1.37366 0,0.7487 0.0307,0.9558 0.19484,1.31233 0.60681,1.31845 2.16508,1.95269 3.65686,1.48839 1.00549,-0.31294 1.64976,-0.99902 1.91328,-2.03742 0.39226,-1.54574 -0.39976,-3.05035 -1.85542,-3.52477 -0.55374,-0.18047 -1.86412,-0.1101 -2.35475,0.12646 z m -16.43284,-4.18429 c 0.87485,0.19902 1.69748,0.64595 2.24449,1.21944 l 0.48388,0.50728 v -0.71338 -0.71338 h 2.32833 2.32833 v 10.58334 10.58333 h -2.32833 -2.32833 v -4.61669 -4.61668 l -0.5426,0.41587 c -1.08115,0.82866 -2.05164,1.14431 -3.5214,1.14535 -1.43348,0.001 -2.45424,-0.30032 -3.55931,-1.05076 -1.31926,-0.8959 -2.31604,-2.34842 -2.75828,-4.01942 -0.2197,-0.83016 -0.22128,-2.88469 -0.003,-3.72534 0.2149,-0.82712 0.89638,-2.1914 1.39144,-2.78555 0.83083,-0.99716 2.072,-1.80332 3.27801,-2.12913 0.70881,-0.19148 2.31598,-0.23684 2.98663,-0.0843 z m -1.52615,4.26234 c -1.05615,0.52036 -1.5492,1.42568 -1.48475,2.72629 0.0404,0.81649 0.22044,1.3076 0.66463,1.81351 1.07121,1.22004 3.23342,1.2977 4.37402,0.1571 1.11468,-1.11468 1.13188,-3.05529 0.0372,-4.20009 -0.58007,-0.60664 -1.19354,-0.82261 -2.25983,-0.79557 -0.67178,0.017 -0.83283,0.0532 -1.33129,0.29876 z m 93.069852,5.64729 v 9.60967 h -1.058333 -1.058334 v -9.60967 -9.60967 h 1.058334 1.058333 z m -6.011333,-8.6e-4 v 9.62665 l -3.02683,-0.0403 c -3.16334,-0.0421 -3.81475,-0.10979 -5.05884,-0.52558 -2.46477,-0.82376 -4.60376,-2.84824 -5.537819,-5.24134 -0.52965,-1.35699 -0.64338,-2.04359 -0.6395,-3.86089 0.004,-1.69085 0.10712,-2.32538 0.58761,-3.60193 0.848009,-2.25296 3.042849,-4.45508 5.246569,-5.26399 1.46543,-0.5379 2.17692,-0.62544 5.48664,-0.67511 l 2.94217,-0.0441 z m -5.63033,-7.48885 c -1.83457,0.26188 -3.11231,0.87439 -4.30977,2.06597 -1.45328,1.44615 -2.19561,3.2907 -2.18308,5.42456 0.0129,2.20243 0.64739,3.85848 2.03448,5.31034 1.00153,1.04828 2.00671,1.63431 3.47629,2.0267 0.52047,0.13897 1.00338,0.18023 2.52724,0.21591 l 1.88384,0.0441 v -7.58778 -7.58777 l -1.41817,0.002 c -0.77999,9.2e-4 -1.68487,0.0397 -2.01083,0.0863 z m -11.641669,7.48971 v 9.60967 h -4.99533 -4.99534 v -1.016 -1.016 h 3.89467 3.89467 v -2.83634 -2.83633 h -3.76767 -3.76767 v -0.97367 -0.97366 h 3.76767 3.76767 v -3.76767 -3.76767 h -3.89467 -3.89467 v -1.016 -1.016 h 4.99534 4.99533 z m -11.85334,-9.57843 c 0,0.0172 -0.40005,0.93387 -0.889,2.0371 -0.48895,1.10323 -0.889,2.01984 -0.889,2.03692 0,0.0171 -0.12875,0.31005 -0.28612,0.65106 -0.15737,0.34101 -0.61167,1.36297 -1.00956,2.27102 -1.07239,2.44735 -2.50167,5.69569 -3.91163,8.89 -0.68858,1.55998 -1.37721,3.12123 -1.5303,3.46943 -0.15309,0.34821 -0.30948,0.6425 -0.34753,0.65398 -0.038,0.0115 -0.82108,-1.74026 -1.74006,-3.89277 -0.91898,-2.1525 -2.83333,-6.61874 -4.2541,-9.92498 -1.42078,-3.30623 -2.58341,-6.05896 -2.58363,-6.11716 -3e-4,-0.0796 0.28764,-0.10536 1.16377,-0.10391 l 1.16416,0.002 1.11408,2.68624 1.11407,2.68624 h 4.12161 4.1216 l 1.14351,-2.68817 1.14351,-2.68817 h 1.17731 c 0.64752,0 1.17731,0.0141 1.17731,0.0312 z m -11.90616,7.60993 c 0.0276,0.10477 0.73356,1.8272 1.56879,3.82761 l 1.5186,3.6371 0.22587,-0.50444 c 0.12423,-0.27744 0.26068,-0.59286 0.30324,-0.70094 0.0425,-0.10807 0.66784,-1.58012 1.38952,-3.27122 0.72168,-1.6911 1.31214,-3.0981 1.31214,-3.12667 0,-0.0286 -1.43288,-0.0519 -3.18417,-0.0519 h -3.18418 z m -7.39784,1.96788 v 9.61029 h -2.49766 -2.49767 v -7.493 -7.493 h -3.00715 -3.00714 l 0.0226,-2.0955 0.0226,-2.0955 5.48217,-0.0218 5.48216,-0.0218 z m 37.888339,11.2748 c 0.50604,0.1082 1.49399,0.50829 1.86929,0.75703 1.43463,0.9508 2.28123,2.50866 2.2729,4.18246 -0.0114,2.28195 -1.4956,4.2272 -3.71886,4.87391 -1.14517,0.33311 -2.68854,0.13864 -3.746499,-0.47208 l -0.4445,-0.25659 v -0.67506 -0.67507 l 0.40217,0.30909 c 1.074389,0.82571 2.417479,1.08957 3.646279,0.71633 1.79464,-0.54511 3.02161,-2.51345 2.72482,-4.37126 -0.2665,-1.66821 -1.648,-3.09268 -3.26864,-3.37028 -1.02645,-0.17583 -2.29866,0.19252 -3.133639,0.90729 -0.19177,0.16416 -0.36322,0.2841 -0.381,0.26653 -0.0178,-0.0176 -0.02,-0.33628 -0.005,-0.70825 l 0.0273,-0.6763 0.60765,-0.30407 c 0.334209,-0.16723 0.834729,-0.36154 1.112269,-0.4318 0.46331,-0.11727 1.63031,-0.15849 2.03538,-0.0719 z m 16.552333,0.14625 c 0,0.0221 -0.376143,0.89054 -0.835873,1.92987 -1.571926,3.55373 -2.369148,5.36133 -2.960845,6.71335 -0.325504,0.74377 -0.623578,1.362 -0.662387,1.37384 -0.05241,0.016 -3.961848,-8.96736 -4.310788,-9.90558 -0.0517,-0.13888 -0.003,-0.14991 0.55631,-0.127 l 0.61289,0.0251 0.5585,1.3335 0.55851,1.3335 2.077674,-0.002 2.077676,-0.002 0.556637,-1.33116 0.556636,-1.33115 0.60753,-0.0249 c 0.334142,-0.0137 0.60753,-0.007 0.60753,0.0153 z m -5.87898,4.10391 c 0.899279,2.18391 1.423169,3.39536 1.454689,3.36384 0.05763,-0.0576 1.545624,-3.54246 1.545624,-3.6198 0,-0.066 -2.702295,-0.141 -2.981804,-0.0827 -0.133747,0.0279 -0.135239,0.0552 -0.01851,0.33867 z m -4.047493,0.71049 -0.0219,4.84717 h -0.508 -0.508 l -0.0219,-4.84717 -0.0219,-4.84716 h 0.55172 0.55172 z m -13.675129,-0.51266 0.0219,4.33449 0.84666,-0.008 c 0.46567,-0.005 0.97226,0.0115 1.12576,0.036 l 0.27908,0.0445 -0.0251,0.47665 -0.0251,0.47665 -2.8575,0.0223 -2.8575,0.0223 v -0.54789 -0.54789 l 1.16417,0.008 1.16416,0.008 0.0219,-4.32919 0.0219,-4.32919 h 0.5488 0.54879 z m -4.61287,0.51266 -0.0219,4.84717 h -2.49767 -2.49767 v -0.508 c 0,-0.4475 0.0202,-0.50945 0.16934,-0.52017 0.0931,-0.007 0.97896,-0.0162 1.9685,-0.0212 l 1.79917,-0.009 v -1.397 -1.397 h -1.90001 c -1.045,0 -1.91442,-0.0286 -1.93204,-0.0635 -0.0176,-0.0349 -0.0162,-0.26353 0.003,-0.508 l 0.0352,-0.4445 h 1.89683 1.89683 v -1.905 -1.905 h -1.98967 -1.98967 v -0.508 -0.508 h 2.5407 2.54069 z m -20.80753,-0.38417 c 1.77446,0.10499 3.1156,0.45549 4.61433,1.20593 2.06122,1.03208 3.76288,2.64016 4.86444,4.59691 l 0.27406,0.48683 h -10.25771 -10.25772 l 0.26175,-0.49108 c 0.76488,-1.43507 2.31906,-3.04827 3.94603,-4.09589 1.77326,-1.14181 4.41898,-1.82907 6.55482,-1.7027 z m 16.49115,10.07096 c 0.36244,0.17865 0.66811,0.54897 0.77713,0.94151 0.11388,0.41007 0.11339,3.18479 -6.5e-4,3.59542 -0.11125,0.40058 -0.57237,0.85351 -0.99911,0.98136 -0.48239,0.14453 -33.08176,0.1412 -33.56447,-0.003 -0.43952,-0.13169 -0.85986,-0.56901 -0.98849,-1.02846 -0.0682,-0.24342 -0.0926,-0.89556 -0.0738,-1.97264 0.0277,-1.59249 0.0303,-1.61262 0.26088,-1.96069 0.12811,-0.19343 0.38377,-0.42864 0.56813,-0.52269 0.33298,-0.16988 0.44591,-0.171 17.03907,-0.16908 15.20474,0.002 16.72878,0.0142 16.98136,0.13869 z m -0.008,9.33726 c 0.22288,0.10119 0.44264,0.29443 0.59266,0.52112 l 0.23844,0.3603 v 1.82652 c 0,1.7588 -0.007,1.83813 -0.19477,2.13975 -0.10712,0.17227 -0.33572,0.40087 -0.508,0.508 l -0.31323,0.19476 -16.71439,0.022 c -16.58354,0.0218 -16.71713,0.0207 -17.0654,-0.14792 -0.75788,-0.36689 -0.89226,-0.78238 -0.8875,-2.74421 0.005,-1.98634 0.1194,-2.33394 0.88528,-2.68563 0.32499,-0.14924 1.01074,-0.15552 16.97567,-0.15552 16.16293,0 16.6471,0.005 16.99124,0.16083 z m -0.0156,9.03547 c 0.81347,0.42885 0.90932,0.74381 0.87434,2.87308 -0.026,1.58589 -0.0392,1.7037 -0.22244,1.99847 -0.10712,0.17228 -0.33572,0.40088 -0.508,0.508 l -0.31323,0.19477 h -16.80634 -16.80633 l -0.31324,-0.19477 c -0.17227,-0.10712 -0.40087,-0.33572 -0.508,-0.508 -0.18246,-0.29344 -0.1965,-0.41551 -0.22226,-1.93168 -0.0365,-2.14735 0.0879,-2.5659 0.86751,-2.92 0.33244,-0.15099 0.96722,-0.15678 17.02465,-0.1553 15.04295,0.001 16.70426,0.0147 16.93334,0.13543 z m -23.23192,9.66517 c -0.09,0.12493 -0.30462,0.3605 -0.47687,0.52348 -0.65776,0.62237 -2.17587,2.6596 -3.97479,5.334 -1.78592,2.65506 -3.07647,4.85941 -4.23812,7.239 -3.56882,7.31056 -4.23994,13.40422 -2.1815,19.80764 0.82239,2.55829 1.33179,3.69242 4.33719,9.65636 2.87751,5.71018 3.58038,7.29952 4.6616,10.541 1.26883,3.80396 1.91692,7.25663 2.12377,11.31438 l 0.0944,1.85129 0.29745,0.26167 c 0.29549,0.25994 0.29655,0.26342 0.1613,0.52496 -0.21802,0.42162 -0.17695,0.83659 0.11134,1.12488 0.20804,0.20805 0.31547,0.24749 0.67407,0.24749 0.42178,0 0.42751,0.004 0.50934,0.3175 0.0455,0.17462 0.10747,0.4699 0.13766,0.65617 0.0302,0.18626 0.0735,0.40626 0.0962,0.48888 0.0317,0.11541 -0.0558,0.19057 -0.37776,0.32437 -0.39304,0.16334 -0.58497,0.3715 -0.61631,0.66841 -0.0371,0.35176 0.0293,0.54585 0.26065,0.762 0.1397,0.1305 0.254,0.29864 0.254,0.37365 0,0.21747 -0.77233,1.31997 -0.92258,1.31699 -0.0747,-10e-4 -0.20971,-0.0586 -0.3001,-0.127 -0.27026,-0.20441 -0.68827,-0.15442 -0.99416,0.11889 -0.2344,0.20944 -0.2741,0.30379 -0.28603,0.67981 -0.008,0.24014 -0.0286,0.44879 -0.0467,0.46367 -0.0823,0.0679 -1.52469,0.31033 -1.59343,0.26785 -0.0425,-0.0263 -0.10212,-0.16063 -0.13241,-0.29854 -0.0764,-0.34783 -0.49231,-0.67865 -0.85321,-0.67865 -0.21383,0 -0.37828,0.0801 -0.62857,0.30624 l -0.33897,0.30624 -0.54022,-0.35197 c -0.81702,-0.53231 -0.86091,-0.59753 -0.65754,-0.97697 0.32074,-0.59845 -0.0907,-1.25877 -0.77577,-1.24502 -0.20992,0.004 -0.4184,-0.0385 -0.46331,-0.0949 -0.0449,-0.0564 -0.13852,-0.41647 -0.20804,-0.8001 -0.1374,-0.7582 -0.12091,-0.8089 0.29732,-0.91387 0.59222,-0.14863 0.77793,-0.99376 0.31568,-1.43662 -0.1397,-0.13384 -0.254,-0.30358 -0.254,-0.37719 0,-0.12981 0.23632,-0.52337 0.6475,-1.07833 l 0.20018,-0.27018 0.38387,0.1698 c 0.31975,0.14144 0.43109,0.15422 0.66659,0.0765 0.427,-0.14093 0.58985,-0.37126 0.60523,-0.85606 0.007,-0.23164 0.0282,-0.43604 0.0464,-0.45422 0.0182,-0.0182 0.23532,-0.0843 0.48253,-0.14694 l 0.44946,-0.11388 -0.27618,-0.37975 c -1.18562,-1.63022 -1.96448,-2.99082 -4.09468,-7.15308 -0.54815,-1.07104 -1.26491,-2.44264 -1.59282,-3.048 -2.83818,-5.23973 -5.24324,-7.80396 -8.07611,-8.61059 -1.64054,-0.46713 -4.19434,-0.0897 -6.43797,0.9514 -2.12135,0.98438 -3.9015,2.73311 -4.84681,4.76126 -0.88427,1.89716 -1.24544,3.81659 -1.15866,6.15759 0.0555,1.49658 0.18427,2.36099 0.59436,3.98909 0.68639,2.72506 1.71769,4.60031 4.46463,8.11825 5.70482,7.30598 8.03031,11.02314 8.03545,12.84418 0.001,0.43949 -0.1122,0.69432 -0.40695,0.91415 -0.3632,0.27088 -1.29605,0.2251 -2.28469,-0.11212 -2.62134,-0.89411 -7.26345,-3.81474 -10.96192,-6.89681 -1.96122,-1.63436 -4.92907,-4.40607 -5.86714,-5.4794 -0.18315,-0.20955 -0.58374,-0.66675 -0.89021,-1.016 -1.61107,-1.83597 -1.68984,-2.37363 -0.92411,-6.30767 0.71902,-3.69399 1.67935,-6.77733 3.15123,-10.11767 0.67245,-1.52608 2.51673,-5.21085 3.19945,-6.39233 0.0807,-0.1397 0.30971,-0.5588 0.50886,-0.93133 0.19915,-0.37254 0.85796,-1.57269 1.46402,-2.667 0.99644,-1.79918 1.76471,-3.3214 3.67493,-7.28134 3.16874,-6.56892 5.04696,-11.38155 6.70767,-17.18733 0.81953,-2.86505 1.2467,-4.69927 1.69576,-7.28134 1.19868,-6.89237 1.72905,-8.44752 3.46498,-10.16 1.11399,-1.09894 2.42623,-1.73931 4.24414,-2.07115 0.76233,-0.13915 3.53578,-0.26218 7.47187,-0.33144 l 2.35122,-0.0414 z m -3.37911,68.00787 c -0.85848,0.42898 -1.29786,1.14569 -1.30023,2.12085 -0.005,2.05345 2.5557,3.11594 3.99548,1.65782 0.95832,-0.97052 0.94715,-2.43537 -0.0258,-3.37898 -0.72832,-0.7064 -1.7497,-0.85932 -2.6695,-0.39969 z m 19.88003,-68.07034 c 2.02565,0.0314 3.77825,0.0792 3.89466,0.10638 0.11642,0.0271 0.57362,0.11054 1.016,0.18533 1.96971,0.33298 3.7734,1.23727 4.91378,2.46354 1.67763,1.80396 2.44017,3.95772 3.26377,9.21837 0.35595,2.27359 0.7261,4.42365 0.88426,5.13636 0.22286,1.0042 0.50994,2.13504 0.55297,2.1782 0.0182,0.0183 0.0941,-0.0174 0.16863,-0.0792 0.18111,-0.15031 0.23655,-0.0535 0.46182,0.80662 1.00633,3.84222 2.23169,7.44441 3.55741,10.4577 0.19463,0.44239 0.44797,1.03294 0.56296,1.31234 0.597359,1.45134 3.606989,7.33154 5.655159,11.049 0.2694,0.48895 0.64318,1.17475 0.83063,1.524 0.18744,0.34925 0.55801,1.03505 0.82348,1.524 0.93987,1.7311 1.26242,2.3478 2.01555,3.85369 0.92057,1.84068 1.40432,2.87864 2.0907,4.48598 1.29512,3.03284 2.29594,6.34781 2.786217,9.22866 0.524032,3.07917 0.524594,7.47642 0.0014,10.58334 -0.883309,5.24492 -2.808059,10.37949 -5.522459,14.732 -2.55416,4.09556 -3.83215,5.6408 -6.72438,8.13054 -1.32298,1.13887 -1.773817,1.47647 -2.618097,1.96046 -2.28971,1.31259 -7.00542,2.53666 -9.11075,2.36489 -1.53132,-0.12494 -1.98482,-0.75918 -1.36898,-1.91461 0.57447,-1.07781 1.99785,-2.62067 5.15799,-5.59092 4.21687,-3.9635 6.38273,-6.40051 8.538137,-9.60703 1.56217,-2.32399 2.12809,-3.41197 2.95065,-5.67267 0.35621,-0.979 0.99358,-3.47541 1.26457,-4.953 0.20804,-1.13431 0.21036,-3.65668 0.004,-4.68308 -1.01805,-5.07137 -5.54598,-8.16012 -11.265057,-7.68454 -4.21229,0.35028 -7.61056,2.1052 -12.71419,6.56579 -1.07209,0.93701 -1.58925,1.37068 -2.91106,2.44109 -4.53064,3.66892 -7.88991,5.78941 -9.7655,6.16432 -0.44684,0.0893 -0.59823,0.18927 -1.80317,1.19058 -1.95651,1.62586 -2.03204,1.67851 -2.40802,1.67851 -0.77344,0 -1.23052,-0.9006 -0.77348,-1.524 0.13289,-0.18127 2.134,-1.92141 2.57467,-2.23891 0.11348,-0.0818 0.15749,-0.25433 0.18002,-0.70598 0.0491,-0.98456 0.69638,-2.14696 1.95578,-3.51231 0.75624,-0.81986 2.12024,-2.07105 2.92753,-2.68541 0.39223,-0.29849 1.11319,-0.8582 1.60214,-1.24381 0.48895,-0.3856 1.5367,-1.20905 2.32833,-1.82988 8.13961,-6.3834 10.41509,-8.30301 12.06494,-10.17803 3.52312,-4.00395 5.34073,-8.07597 6.01451,-13.47432 0.427,-3.4212 0.40926,-6.23171 -0.0873,-13.83069 -0.13541,-2.07221 -0.26953,-4.30106 -0.29805,-4.953 -0.0923,-2.1106 -0.1024,-2.24855 -0.16848,-2.31004 -0.0358,-0.0333 -0.0796,-0.0208 -0.0972,0.0279 -0.0176,0.0487 -0.17044,0.29637 -0.33958,0.55034 -0.46074,0.69178 -1.18263,1.84734 -1.44622,2.31501 -0.12832,0.22766 -0.2714,0.47558 -0.31797,0.55092 -0.59942,0.96987 -1.73459,3.1638 -2.30448,4.45382 -1.76619,3.99804 -2.75844,7.64539 -4.04233,14.85901 -0.11189,0.62865 -0.28499,1.4097 -0.38467,1.73566 -0.66652,2.17955 -0.9453,2.94895 -1.84067,5.08 -1.65924,3.94915 -4.54209,7.32367 -6.2566,7.32367 -0.42404,0 -0.82832,-0.43146 -0.95418,-1.01834 -0.18315,-0.85403 -0.068,-2.76426 0.25769,-4.27333 0.33099,-1.5338 0.94854,-3.54649 2.35589,-7.67827 1.43345,-4.20837 1.85148,-6.33351 1.75769,-8.93551 -0.0397,-1.10003 -0.0927,-1.50926 -0.30103,-2.32055 -0.52918,-2.06115 -1.49854,-3.7708 -2.97604,-5.24883 -1.30387,-1.30433 -2.42342,-1.74991 -4.17111,-1.66009 -1.58902,0.0817 -3.18246,0.81158 -5.10083,2.33657 -1.00354,0.79775 -2.61906,2.4624 -3.33913,3.44068 -0.37703,0.51223 -0.74201,0.99846 -0.81106,1.08051 -0.0691,0.0821 -0.28745,0.38073 -0.48534,0.66373 -0.19789,0.28301 -0.436,0.62277 -0.52914,0.75502 -0.28023,0.39793 -1.53519,2.13251 -1.81339,2.50642 l -0.25967,0.34901 0.42867,0.0569 c 0.58959,0.0782 1.23939,0.38437 1.65082,0.77779 0.3482,0.33296 0.49873,0.56666 1.60324,2.489 0.33445,0.58208 1.28562,2.22038 2.11371,3.64066 1.78284,3.0578 2.82536,4.85575 3.38741,5.842 0.22558,0.39582 0.49367,0.85302 0.59577,1.016 0.1021,0.16299 0.55955,0.94404 1.01656,1.73567 0.45702,0.79163 0.85301,1.46604 0.87998,1.49867 0.027,0.0326 0.19517,0.0264 0.37375,-0.0139 0.30464,-0.0687 0.34449,-0.0534 0.64477,0.24683 0.17603,0.17604 0.38611,0.49302 0.46684,0.7044 0.21158,0.55402 0.0862,0.76053 -0.75912,1.25013 -0.37254,0.21577 -1.22979,0.71649 -1.905,1.11271 -1.16566,0.68401 -1.51233,0.88349 -2.49767,1.43719 -0.75192,0.42254 -1.06008,0.30981 -1.51664,-0.55482 -0.27502,-0.52081 -0.27401,-0.64989 0.008,-0.9847 0.18235,-0.21671 0.20789,-0.29671 0.13043,-0.40866 -0.053,-0.0766 -0.23699,-0.38684 -0.40893,-0.68953 -0.17194,-0.30268 -0.49215,-0.85513 -0.71158,-1.22766 -0.97042,-1.64757 -1.40294,-2.39094 -1.55176,-2.667 -0.0879,-0.16299 -0.28538,-0.50589 -0.43893,-0.762 -0.15354,-0.25612 -0.82074,-1.39912 -1.48266,-2.54 -1.13761,-1.96078 -2.36601,-4.07595 -3.024,-5.207 -0.16254,-0.2794 -0.39144,-0.67945 -0.50868,-0.889 -0.11723,-0.20955 -0.39246,-0.68664 -0.61162,-1.0602 -0.51779,-0.88256 -0.6242,-1.21791 -0.63074,-1.9878 -0.005,-0.59733 -0.0216,-0.65172 -0.27837,-0.91683 -0.15013,-0.15501 -0.31181,-0.42171 -0.35929,-0.59267 -0.14797,-0.53274 -0.0986,-1.59106 0.12475,-2.6753 0.49215,-2.3889 1.30896,-4.4097 2.46652,-6.10221 1.22253,-1.7875 1.75817,-2.40305 4.63497,-5.32647 0.59979,-0.6095 1.64619,-1.71779 2.32534,-2.46286 0.67916,-0.74507 1.43154,-1.56422 1.67198,-1.82033 0.24043,-0.25612 0.56563,-0.61725 0.72265,-0.80252 0.15703,-0.18526 0.5373,-0.60436 0.84506,-0.93133 0.75754,-0.80484 1.16783,-1.27681 2.06302,-2.37316 0.41794,-0.51186 0.78074,-0.94971 0.80621,-0.97299 0.14515,-0.13267 1.47953,-2.1114 1.88418,-2.794 0.73774,-1.24452 1.30356,-2.54721 1.65486,-3.81 0.71465,-2.56891 0.56826,-5.20746 -0.43796,-7.89398 -0.16877,-0.45061 -0.30686,-0.85906 -0.30686,-0.90766 0,-0.0543 0.22003,-0.0817 0.5715,-0.0712 0.31432,0.009 2.22885,0.0428 4.2545,0.0742 z m -20.53167,38.24516 c -0.23283,0.0795 -0.42333,0.16673 -0.42333,0.19394 0,0.0272 0.46273,0.84637 1.02828,1.82034 0.56556,0.97396 1.10317,1.9042 1.19468,2.06718 0.0915,0.16298 0.29242,0.50588 0.44646,0.762 0.15404,0.25612 0.42001,0.71332 0.59105,1.016 0.17104,0.30268 0.72288,1.25518 1.22631,2.11667 0.50343,0.86148 1.08325,1.8616 1.28848,2.2225 0.20523,0.36089 0.42673,0.65616 0.49221,0.65616 0.0655,0 0.43469,-0.27619 0.82046,-0.61376 0.90528,-0.79217 0.91307,-0.79975 0.91307,-0.8902 0,-0.0815 -1.87987,-3.38926 -2.70601,-4.76137 -0.0421,-0.0698 -0.29489,-0.508 -0.56185,-0.97367 -1.26376,-2.20438 -1.68694,-2.86079 -2.05089,-3.18115 -0.63135,-0.55573 -1.44519,-0.71233 -2.25892,-0.43464 z m 3.05185,2.68061 c 0.28443,0.28443 0.27484,0.65452 -0.0242,0.93176 -0.63483,0.58864 -1.4845,-0.23346 -0.94722,-0.91649 0.23568,-0.29963 0.68003,-0.30661 0.97137,-0.0153 z m 2.83773,5.99671 c 0.27658,0.2157 0.25665,0.6452 -0.0391,0.84268 -0.17151,0.11452 -0.53114,0.0664 -0.6727,-0.09 -0.41502,-0.4586 0.22334,-1.13359 0.71179,-0.75264 z m -3.82081,-1.46022 c -0.11304,0.0605 -0.16377,0.17759 -0.16377,0.37803 0,0.29445 0.16917,0.46566 0.4601,0.46566 0.16865,0 0.47123,-0.29901 0.47123,-0.46566 0,-0.16666 -0.30258,-0.46567 -0.47123,-0.46567 -0.0729,0 -0.20626,0.0394 -0.29633,0.0876 z m 4.1119,4.09224 c -0.46567,0.38678 -1.12195,0.88585 -1.45841,1.10904 l -0.61175,0.40581 0.16725,0.23487 c 0.092,0.12918 0.16724,0.25579 0.16724,0.28136 0,0.0256 0.23356,0.43879 0.51903,0.91827 0.28547,0.47947 0.71814,1.21467 0.96148,1.63377 0.24335,0.4191 0.66619,1.143 0.93965,1.60867 0.27345,0.46566 0.56858,0.98001 0.65584,1.143 0.24587,0.45923 0.27077,0.46604 0.7079,0.19342 0.2239,-0.13964 1.0929,-0.64602 1.9311,-1.12529 0.8382,-0.47927 1.57077,-0.91384 1.62793,-0.96571 0.0806,-0.0732 0.001,-0.27455 -0.35458,-0.89754 -0.25219,-0.44177 -0.49898,-0.84923 -0.54843,-0.90548 -0.0495,-0.0562 -0.0899,-0.12072 -0.0899,-0.14328 0,-0.0226 -0.25332,-0.47185 -0.56292,-0.99841 -0.30961,-0.52656 -0.78976,-1.35743 -1.067,-1.84638 -0.27724,-0.48895 -0.62047,-1.0795 -0.76273,-1.31233 -0.14227,-0.23284 -0.31182,-0.51077 -0.37678,-0.61764 l -0.11812,-0.19429 -0.44006,0.38745 c -0.24203,0.2131 -0.82106,0.70391 -1.28672,1.09069 z m 1.73034,1.42929 c 0.16867,0.43488 -0.37696,0.7574 -0.62944,0.37206 -0.11555,-0.17633 -0.1199,-0.23794 -0.0273,-0.38618 0.15443,-0.24729 0.55874,-0.2386 0.65676,0.0141 z m -0.6428,2.081 c 0.32185,0.35564 0.066,0.86116 -0.43587,0.86116 -0.20559,0 -0.29313,-0.0531 -0.38388,-0.23283 -0.0647,-0.12806 -0.0988,-0.28998 -0.0758,-0.35983 0.13585,-0.41313 0.63046,-0.56142 0.89554,-0.2685 z m 2.5714,0.50347 c 0.2595,0.0416 0.61672,0.4911 0.61672,0.7761 0,0.50744 -0.63448,0.96003 -1.08453,0.77361 -0.26535,-0.10991 -0.52413,-0.48751 -0.52413,-0.76479 0,-0.15258 0.21565,-0.68123 0.2779,-0.68123 0.0108,0 0.1336,-0.0301 0.27299,-0.0669 0.13939,-0.0368 0.33787,-0.0534 0.44105,-0.0368 z m 1.05447,2.56987 c -2.86916,1.6615 -3.48575,2.03664 -3.48575,2.12078 0,0.12953 0.31919,0.71014 0.45014,0.81882 0.10103,0.0838 0.301,-0.001 1.08568,-0.46206 1.04106,-0.61134 3.31404,-1.92883 4.03102,-2.33648 0.24447,-0.13901 0.4445,-0.26967 0.4445,-0.29036 0,-0.14102 -0.48429,-0.96221 -0.56745,-0.96221 -0.0213,0 -0.90246,0.50018 -1.95814,1.11151 z m 2.68397,-25.48484 c 0.55651,0.0924 1.60499,0.53812 2.18268,0.92777 2.85059,1.92268 3.66288,5.73701 1.82857,8.58656 -0.43727,0.67928 -1.43164,1.69152 -1.92739,1.962 -1.96964,1.07466 -3.68456,1.24284 -5.64227,0.55335 -1.56706,-0.55191 -3.11713,-2.15382 -3.66247,-3.78496 -0.66902,-2.00108 -0.42724,-3.82075 0.74733,-5.62439 0.83543,-1.28286 2.42786,-2.34338 3.95304,-2.63262 0.52444,-0.0995 1.88787,-0.0928 2.52051,0.0123 z m -27.03552,20.00785 c 3.35874,0.86844 5.64405,3.85376 5.64272,7.37115 -0.001,3.83759 -2.81125,7.00212 -6.65933,7.50006 -3.79297,0.4908 -7.36442,-2.00855 -8.31824,-5.82122 -0.21453,-0.85756 -0.19379,-2.73525 0.0397,-3.59175 0.75838,-2.78208 3.02222,-4.96144 5.75543,-5.54064 0.92434,-0.19587 2.61577,-0.1565 3.53973,0.0824 z m 48.29781,15.95606 c 1.9314,0.42989 3.57717,1.54119 4.64368,3.13564 0.902809,1.34972 1.294129,2.63164 1.294009,4.23911 -2.8e-4,3.78296 -2.736719,6.92562 -6.494679,7.45883 -3.3912,0.48117 -6.82528,-1.56528 -8.03938,-4.79086 -0.67561,-1.79491 -0.62429,-4.01139 0.13171,-5.68856 0.32847,-0.72872 0.94347,-1.65616 1.46346,-2.20696 0.85428,-0.90491 2.27959,-1.74048 3.52921,-2.06896 0.94439,-0.24825 2.54602,-0.28434 3.47199,-0.0782 z m -34.06477,11.10461 c 1.67447,0.16983 3.16819,1.18193 3.93339,2.66513 0.43227,0.83787 0.5406,1.30545 0.53883,2.32568 -0.002,1.13214 -0.21511,1.85676 -0.80608,2.74034 -1.54584,2.31123 -4.53899,2.94017 -6.89704,1.44926 -0.97729,-0.6179 -1.81491,-1.7723 -2.11846,-2.9196 -0.16217,-0.61298 -0.15949,-1.94846 0.005,-2.58571 0.43757,-1.69311 1.78979,-3.05358 3.51026,-3.53169 0.64037,-0.17795 1.12198,-0.21562 1.8339,-0.14341 z m -1.54095,0.80239 c -1.92099,0.49328 -3.25629,2.2108 -3.25629,4.18842 0,1.09478 0.37506,2.03452 1.14309,2.86408 0.91259,0.98571 1.83407,1.38478 3.21725,1.3933 0.76815,0.005 0.90614,-0.0199 1.48802,-0.26515 2.77843,-1.17127 3.61853,-4.53238 1.70677,-6.82856 -0.47901,-0.57533 -1.52497,-1.20976 -2.29482,-1.39194 -0.49999,-0.11832 -1.46261,-0.0992 -2.00402,0.0399 z m 4.51494,3.45262 c 0.26494,0.33829 0.14288,1.50376 -0.24081,2.29932 -0.3419,0.7089 -0.94637,1.31571 -1.66069,1.66712 -0.55555,0.2733 -0.61027,0.28303 -1.59269,0.28303 -0.98564,0 -1.03399,-0.009 -1.55041,-0.27835 -0.54723,-0.28574 -0.70259,-0.46723 -0.53955,-0.63027 0.0674,-0.0674 0.26208,-0.0136 0.70975,0.19619 0.55883,0.26191 0.6885,0.28909 1.37884,0.28909 0.6771,0 0.82332,-0.0292 1.31233,-0.26224 1.14865,-0.54736 1.76679,-1.4966 1.84281,-2.82988 0.0422,-0.73988 0.1514,-0.97537 0.34042,-0.73401 z m 0.98745,-3.14137 c 0.52783,0.58327 0.64505,0.85973 0.44808,1.0567 -0.18876,0.18876 -0.42997,0.0752 -0.80744,-0.38006 -0.55139,-0.66507 -0.63507,-0.82774 -0.52835,-1.02713 0.1564,-0.29225 0.38926,-0.20031 0.88771,0.35049 z m -11.93667,8.00267 c 0.17777,0.49026 0.51004,1.27339 0.73836,1.74029 0.35107,0.7179 0.50834,0.93509 1.01909,1.40739 0.78878,0.72939 1.27705,1.46942 1.20405,1.82489 -0.13262,0.6458 -1.59287,6.19178 -1.64625,6.25241 -0.033,0.0375 -0.60497,-0.99123 -1.27104,-2.286 -0.66606,-1.29478 -1.39028,-2.69705 -1.60936,-3.11615 -1.66229,-3.17985 -2.8189,-5.46369 -2.78169,-5.49273 0.0175,-0.0137 0.24138,-0.0838 0.4975,-0.15589 0.41006,-0.1154 3.19657,-0.95502 3.43522,-1.0351 0.05,-0.0168 0.23634,0.37063 0.41412,0.86089 z m -3.92377,1.7803 c 0.26175,0.50043 0.82849,1.59567 1.25942,2.43387 0.72792,1.41586 1.05633,2.05022 2.52035,4.86833 0.30239,0.58208 0.49312,1.00118 0.42385,0.93133 -0.0693,-0.0699 -0.67642,-0.889 -1.34922,-1.82033 -0.6728,-0.93133 -1.564,-2.1625 -1.98045,-2.73592 -0.89747,-1.23574 -1.71828,-2.37231 -2.07931,-2.8792 -0.28815,-0.40455 -0.27116,-0.51658 0.0557,-0.36763 0.40185,0.18309 0.43843,0.14153 0.54671,-0.62125 0.0562,-0.39582 0.10774,-0.71953 0.11457,-0.71936 0.007,1.7e-4 0.22658,0.40974 0.48833,0.91016 z m -3.46677,0.43501 c 0.91619,0.0749 1.68323,0.15524 1.70454,0.17852 0.0486,0.053 0.12467,2.30507 0.19317,5.715 l 0.0527,2.62467 -0.52714,-0.80433 c -0.28993,-0.44239 -0.82304,-1.26154 -1.1847,-1.82034 -0.36166,-0.5588 -1.27384,-1.96655 -2.02707,-3.12833 l -1.36951,-2.11233 0.19576,-0.15362 c 0.19367,-0.15198 1.20786,-0.67053 1.2662,-0.6474 0.0166,0.007 0.77984,0.0733 1.69603,0.14816 z m -3.09446,1.17871 c 0.14557,0.21825 0.61985,0.94926 1.05396,1.62448 0.77325,1.20271 1.02383,1.58984 2.94303,4.54685 0.51994,0.80109 0.94534,1.48828 0.94534,1.5271 0,0.10973 -2.65047,1.38697 -2.70411,1.30308 -0.0795,-0.12433 -0.6314,-0.43371 -0.7743,-0.43405 -0.10429,-2.4e-4 -0.18362,-0.24947 -0.35717,-1.12215 -0.1227,-0.617 -0.47328,-2.30293 -0.77907,-3.7465 -0.82232,-3.88207 -0.82063,-3.8724 -0.69768,-3.99263 0.0833,-0.0815 0.16071,-0.02 0.37,0.29382 z m 6.38166,1.01339 c 0.48895,0.67894 1.07182,1.4847 1.29526,1.79059 0.88915,1.21724 1.58605,2.17857 1.77042,2.44219 0.10669,0.15255 0.38512,0.53355 0.61873,0.84667 0.88039,1.18005 1.48877,2.07069 1.4446,2.11486 -0.0252,0.0251 -0.4544,0.11535 -0.95387,0.20044 -0.94703,0.16133 -0.92265,0.16544 -1.12705,-0.18979 -0.0998,-0.17341 -0.5984,-0.41317 -0.85955,-0.41331 -0.17606,-9e-5 -0.23641,-0.10448 -0.52612,-0.91017 -0.17998,-0.50053 -0.83899,-2.29574 -1.46447,-3.98936 -0.62548,-1.69362 -1.12592,-3.08993 -1.11209,-3.10292 0.0138,-0.013 0.42519,0.53187 0.91414,1.2108 z m -1.18533,-1.22264 c 0,0.0159 0.32701,0.9208 0.7267,2.01084 0.39969,1.09004 1.06599,2.9109 1.48066,4.04636 l 0.75396,2.06447 -0.24581,0.25143 -0.24582,0.25142 -1.16663,-0.34973 c -0.64164,-0.19235 -1.17482,-0.35821 -1.18484,-0.36856 -0.01,-0.0104 -0.0411,-1.19993 -0.0691,-2.6435 -0.028,-1.44357 -0.0732,-3.22474 -0.10057,-3.95817 -0.0273,-0.73342 -0.0269,-1.3335 8.7e-4,-1.3335 0.0278,0 0.0506,0.013 0.0506,0.0289 z m -5.842,0.37638 c 0,0.0752 1.56527,7.58563 1.68628,8.0911 0.0734,0.30665 0.0611,0.341 -0.20739,0.57671 -0.157,0.13785 -0.31059,0.32983 -0.34131,0.42661 -0.0532,0.16762 -0.0966,0.17353 -0.91422,0.12442 -0.4721,-0.0284 -1.62989,-0.0979 -2.57286,-0.15456 -0.94298,-0.0567 -1.7145,-0.13022 -1.7145,-0.16348 0,-0.0333 0.12881,-0.39766 0.28625,-0.80979 0.15744,-0.41213 0.58369,-1.56445 0.94722,-2.56072 0.60817,-1.6667 0.68337,-1.82461 0.94141,-1.97686 0.2062,-0.12167 0.28045,-0.22535 0.28045,-0.39164 0,-0.34176 0.31546,-1.40957 0.56204,-1.90244 0.37873,-0.75703 1.04663,-1.56067 1.04663,-1.25935 z m 14.43675,1.81309 c 0.0476,0.1061 0.20212,0.21656 0.35875,0.25642 0.15511,0.0395 0.27516,0.12474 0.27516,0.19545 0,0.069 -0.13335,1.19684 -0.29633,2.50634 -0.16298,1.3095 -0.29633,2.39497 -0.29633,2.41215 0,0.0172 -0.0542,0.0312 -0.12051,0.0312 -0.17364,0 -0.64301,0.4163 -0.73135,0.64866 -0.0647,0.17007 -0.13334,0.19801 -0.4866,0.19801 -0.22623,0 -0.43023,-0.0189 -0.45334,-0.042 -0.0231,-0.0231 0.0663,-0.45173 0.19861,-0.9525 0.13235,-0.50076 0.44677,-1.71366 0.69871,-2.69531 0.45318,-1.76573 0.72192,-2.74484 0.75341,-2.74484 0.009,0 0.0539,0.0839 0.0998,0.18641 z m 1.56717,0.80791 c 0.84307,0.48729 1.68658,1.3804 2.08205,2.20449 0.18097,0.37708 0.3627,0.68791 0.40386,0.69073 0.0412,0.003 0.35166,-0.25783 0.69,-0.57922 0.85204,-0.80936 2.33681,-1.78632 2.71481,-1.78632 0.0569,0 0.52717,0.66994 1.04497,1.48874 l 0.94145,1.48875 -0.17186,0.27808 c -0.0945,0.15295 -0.17187,0.33594 -0.17187,0.40665 0,0.15232 0.0221,0.14866 -2.921,0.48417 -1.21073,0.13802 -2.84903,0.32804 -3.64067,0.42225 -1.1236,0.13372 -1.44704,0.14823 -1.47447,0.0662 -0.0546,-0.16334 -0.51941,-0.5708 -0.65115,-0.5708 -0.14747,0 -0.1491,0.0487 0.0513,-1.524 0.092,-0.72178 0.20726,-1.69333 0.25624,-2.159 0.10532,-1.00145 0.14847,-1.22766 0.23416,-1.22766 0.0351,0 0.3106,0.14264 0.61222,0.31698 z m 10.24274,-0.17732 c 0.11642,0.0176 0.3736,0.0528 0.5715,0.0783 0.19791,0.0255 0.35984,0.0843 0.35984,0.13058 0,0.15767 -0.94619,1.6926 -1.02682,1.66572 -0.0442,-0.0147 -0.44243,-0.42525 -0.88506,-0.9123 -0.6756,-0.74339 -0.78041,-0.89515 -0.65295,-0.94547 0.15678,-0.0619 1.25951,-0.0733 1.63349,-0.0169 z m -1.82419,0.40064 c 0.16204,0.19178 0.58163,0.65312 0.93241,1.02519 0.35078,0.37207 0.63778,0.71517 0.63778,0.76245 0,0.0473 -0.20111,0.36999 -0.44692,0.71715 l -0.44692,0.6312 -0.51678,0.007 -0.51679,0.007 -0.87779,-1.39081 c -0.48279,-0.76495 -0.90746,-1.44133 -0.94373,-1.50306 -0.0697,-0.11868 0.66269,-0.38089 1.48302,-0.53095 0.39865,-0.0729 0.40289,-0.0712 0.69572,0.27534 z m 3.32259,-0.11356 c 0.10234,0.0399 0.25112,0.19831 0.33062,0.35206 0.0795,0.15374 0.2099,0.37478 0.28978,0.4912 0.31941,0.46554 1.11424,1.87518 1.07786,1.91157 -0.0341,0.0341 -2.93839,-0.87364 -3.01449,-0.94214 -0.0324,-0.0292 0.83675,-1.5197 1.01747,-1.74483 0.0823,-0.10247 0.16295,-0.1208 0.29876,-0.0679 z m 1.34126,0.49337 c 1.04909,0.4975 2.38458,1.43364 2.23362,1.56571 -0.0196,0.0171 -0.35674,0.21504 -0.74923,0.43979 -0.57957,0.33189 -0.72693,0.38574 -0.78453,0.28668 -0.039,-0.0671 -0.39416,-0.66882 -0.78922,-1.33721 -0.39506,-0.66839 -0.7183,-1.23037 -0.7183,-1.24884 0,-0.0723 0.15242,-0.0169 0.80766,0.29387 z m -31.62632,0.80339 c 0,0.0166 -0.20424,0.57857 -0.45387,1.24884 -0.24962,0.67026 -0.6211,1.68487 -0.8255,2.25468 -0.2044,0.56982 -0.39557,1.03654 -0.42482,1.03717 -0.0292,6.3e-4 -0.15706,-0.3708 -0.28403,-0.8254 l -0.23084,-0.82655 0.21658,-0.533 c 0.27313,-0.67216 0.85135,-1.48673 1.41528,-1.99375 0.37832,-0.34014 0.5872,-0.46891 0.5872,-0.36199 z m 30.39347,1.23673 c 0.93459,0.30785 1.4181,0.50406 1.31233,0.53255 -0.44358,0.11949 -1.02576,0.25416 -2.07247,0.47941 -0.62865,0.13529 -1.2385,0.27024 -1.35521,0.29989 -0.17213,0.0437 -0.23856,0.009 -0.35166,-0.18291 -0.13875,-0.23567 -0.13694,-0.24029 0.36656,-0.93534 0.2783,-0.38417 0.53179,-0.69457 0.56332,-0.68977 0.0315,0.005 0.72323,0.22808 1.53713,0.49617 z m 4.22244,0.18956 c 0.23653,0.28882 0.42189,0.53118 0.41191,0.53857 -0.01,0.007 -0.34201,-0.0363 -0.73782,-0.0972 -0.39582,-0.0608 -0.88159,-0.1127 -1.0795,-0.11523 -0.19791,-0.003 -0.35937,-0.0332 -0.3588,-0.0681 9.8e-4,-0.0598 1.19148,-0.78317 1.28886,-0.78317 0.0249,0 0.23881,0.23631 0.47535,0.52513 z m -0.50022,0.66178 c 1.31062,0.17395 1.18705,0.0832 1.78532,1.31076 0.58149,1.19309 0.58912,1.2482 0.19266,1.39121 -0.17711,0.0639 -0.55061,0.21944 -0.83001,0.3457 -0.2794,0.12626 -0.93524,0.41077 -1.45743,0.63226 l -0.94943,0.40271 -0.26357,-0.22177 c -0.14496,-0.12198 -0.31778,-0.22178 -0.38406,-0.22178 -0.152,0 -0.15777,0.17876 0.0635,-1.9685 l 0.18976,-1.8415 0.25762,0.01 c 0.14169,0.005 0.76972,0.0779 1.39564,0.16097 z m -1.9431,0.0951 c -4.1e-4,0.15639 -0.0766,0.96666 -0.16933,1.80059 -0.0927,0.83393 -0.1686,1.54491 -0.1686,1.57995 0,0.035 -0.1693,0.14566 -0.37623,0.24583 l -0.37623,0.18213 -1.54993,-1.24494 c -0.85247,-0.68472 -1.55775,-1.25052 -1.56729,-1.25732 -0.01,-0.007 0.0344,-0.16332 0.0977,-0.3478 l 0.11506,-0.33543 1.76496,-0.39212 c 0.97073,-0.21567 1.86974,-0.41983 1.9978,-0.45368 0.22008,-0.0582 0.23279,-0.046 0.23209,0.22279 z m -6.01059,1.10741 c 0,0.2197 0.42492,0.56429 0.78324,0.63515 0.39232,0.0776 0.25446,-0.24136 1.16295,2.69045 0.28859,0.93134 0.53964,1.75049 0.55789,1.82034 0.0191,0.0733 -0.07,0.18588 -0.21069,0.26619 -0.26265,0.14993 0.14621,0.31726 -9.53239,-3.9013 -0.56198,-0.24494 -0.769,-0.37738 -0.78867,-0.50452 -0.0323,-0.20908 -0.0158,-0.21321 1.55067,-0.38657 0.65193,-0.0722 2.15688,-0.24576 3.34433,-0.38579 3.35748,-0.39594 3.13267,-0.37915 3.13267,-0.23395 z m -28.25073,0.92551 0.23962,0.8011 -0.18448,0.31266 c -0.10146,0.17197 -0.21556,0.31267 -0.25355,0.31267 -0.11306,0 -0.19362,-1.22931 -0.11451,-1.74738 l 0.0733,-0.48015 z m 31.53196,0.73519 c 1.47487,1.18478 1.54361,1.25322 1.50285,1.49619 -0.0235,0.14004 -0.003,0.38769 0.0455,0.55033 l 0.0882,0.29572 -0.73581,0.68639 c -0.70779,0.66025 -0.7458,0.68314 -0.99838,0.601 -0.14441,-0.047 -0.30159,-0.0942 -0.34929,-0.1049 -0.0477,-0.0107 -0.18742,-0.35738 -0.31052,-0.77033 -0.12309,-0.41296 -0.31809,-1.05563 -0.43332,-1.42816 -0.11523,-0.37254 -0.32639,-1.05627 -0.46925,-1.51942 -0.25692,-0.83296 -0.25254,-1.07632 0.019,-1.05565 0.0525,0.004 0.79097,0.56597 1.64103,1.24883 z m -19.71834,-0.83054 c 0.57561,0.17986 1.05602,0.33866 1.06757,0.35289 0.0116,0.0142 0.0421,0.19734 0.0678,0.40689 l 0.0467,0.381 -2.7611,2.30168 c -1.51861,1.26593 -2.79213,2.28251 -2.83006,2.25907 -0.0379,-0.0234 0.14562,-0.4496 0.40788,-0.94702 0.26225,-0.49742 0.97334,-1.84737 1.58019,-2.9999 0.76073,-1.44478 1.14546,-2.09335 1.23892,-2.08856 0.0745,0.004 0.6065,0.15409 1.18211,0.33395 z m -1.68156,-0.20452 c 0,0.028 -0.22375,0.47554 -0.49722,0.99447 -0.27347,0.51892 -0.9436,1.79106 -1.48917,2.82697 -0.9134,1.73433 -1.10095,2.04241 -1.18948,1.95387 -0.0176,-0.0176 -0.0588,-0.76217 -0.0917,-1.65468 l -0.0598,-1.62275 0.22459,-0.0564 c 0.35716,-0.0896 0.64742,-0.49922 0.64742,-0.91357 v -0.35469 l 1.22766,-0.61211 c 0.67522,-0.33666 1.22767,-0.58918 1.22767,-0.56115 z m 8.12439,0.57236 c 0.0553,0.16754 0.19303,0.37738 0.30607,0.4663 0.11305,0.0889 0.20677,0.23239 0.20827,0.31882 0.004,0.23647 -1.31206,8.46349 -1.33144,8.32249 -0.0327,-0.23754 -0.20545,-9.24173 -0.17789,-9.2693 0.0154,-0.0154 0.22296,-0.0539 0.46123,-0.0855 l 0.43322,-0.0575 z m 28.07296,-0.0765 c 1.23389,0.2831 3.17265,1.23078 3.17265,1.55081 0,0.0879 -0.21147,0.5752 -0.29245,0.67395 -0.009,0.0113 -0.90933,-0.3834 -2.00007,-0.87721 -1.09073,-0.49382 -2.18309,-0.97935 -2.42748,-1.07897 -0.49566,-0.20203 -0.56557,-0.30811 -0.20309,-0.30811 0.13287,0 0.46625,-0.0174 0.74084,-0.0388 0.27459,-0.0213 0.72891,0.0139 1.0096,0.0783 z m -29.31027,1.3363 c 0.03,0.80328 0.0751,2.8702 0.10042,4.59317 0.0253,1.72296 0.0645,3.27834 0.0872,3.45639 0.0629,0.49379 -0.0844,0.30391 -0.29834,-0.38438 -0.10541,-0.33917 -0.66112,-2.04543 -1.23492,-3.79168 -0.5738,-1.74625 -1.10545,-3.36951 -1.18145,-3.60725 l -0.13816,-0.43225 0.25973,-0.25974 c 0.14286,-0.14285 0.25974,-0.33968 0.25974,-0.4374 0,-0.10461 0.0783,-0.20983 0.1905,-0.2559 0.14899,-0.0612 1.67602,-0.34146 1.86047,-0.34146 0.0222,0 0.0648,0.65723 0.0948,1.4605 z m 26.47159,-1.16775 c 0,0.0475 -1.19352,2.61551 -2.24462,4.82958 -0.26528,0.5588 -0.61634,1.30175 -0.78012,1.651 -0.16379,0.34925 -0.44083,0.9398 -0.61564,1.31234 -0.17481,0.37253 -0.47184,1.00617 -0.66006,1.40809 -0.34168,0.72959 -0.34274,0.73076 -0.66793,0.73525 l -0.32571,0.004 -1.26879,-2.38029 c -2.60424,-4.88562 -2.43995,-4.55333 -2.30545,-4.66283 0.20713,-0.16864 0.40165,-0.50899 0.40165,-0.70276 0,-0.16961 0.14251,-0.2184 1.81818,-0.62249 1,-0.24115 1.85725,-0.41431 1.905,-0.38479 0.0478,0.0295 0.0868,0.14441 0.0868,0.25533 0,0.3395 0.13455,0.31587 0.71865,-0.12623 0.78277,-0.59248 0.85929,-0.62436 2.33109,-0.97129 0.72083,-0.16991 1.37727,-0.32842 1.45876,-0.35225 0.0815,-0.0238 0.14817,-0.0207 0.14817,0.007 z m 2.87866,1.07021 c 1.23402,0.56128 2.35347,1.06121 2.48766,1.11095 l 0.24399,0.0904 -0.0551,0.68633 c -0.0303,0.37748 -0.19053,1.9431 -0.35601,3.47916 -0.27734,2.57444 -0.35741,2.99422 -0.54862,2.87605 -0.06,-0.0371 -0.52499,-1.05893 -1.52008,-3.34055 -0.74643,-1.71146 -1.14547,-2.61985 -1.39472,-3.175 -0.10453,-0.23283 -0.35184,-0.80433 -0.54956,-1.27 -0.19772,-0.46566 -0.43198,-0.98954 -0.52056,-1.16416 -0.0886,-0.17463 -0.13171,-0.31666 -0.0958,-0.31562 0.0359,10e-4 1.07487,0.46112 2.30888,1.02241 z m -2.13585,0.0552 c 0.23756,0.54716 0.55154,1.26153 0.69772,1.5875 0.14618,0.32596 0.86696,1.96426 1.60173,3.64066 1.32774,3.02925 1.33496,3.04911 1.17448,3.22744 -0.0888,0.0987 -0.19073,0.28919 -0.2265,0.42333 l -0.065,0.2439 -1.26411,0.0613 c -0.69526,0.0337 -2.22553,0.11943 -3.40061,0.1905 -3.13766,0.18976 -3.05596,0.19467 -3.38664,-0.20367 l -0.27381,-0.32983 1.78551,-3.79614 c 0.98203,-2.08788 2.01012,-4.26789 2.28464,-4.84446 0.27452,-0.57657 0.49913,-1.0814 0.49913,-1.12183 0,-0.26128 0.19844,0.0575 0.57348,0.92131 z m -20.00448,0.74769 c 2.18863,0.95547 4.42865,1.93217 4.97782,2.17044 0.72336,0.31385 0.98581,0.46624 0.9525,0.55305 -0.0253,0.0659 -0.046,0.208 -0.046,0.31577 0,0.17038 -0.1242,0.24611 -0.9525,0.58078 -0.52387,0.21166 -2.286,0.94466 -3.91583,1.62888 -1.62983,0.68422 -3.49673,1.46347 -4.14867,1.73168 -0.65193,0.26821 -1.58155,0.65759 -2.06582,0.8653 l -0.88049,0.37764 -0.26661,-0.17703 -0.26661,-0.17702 0.18942,-1.22884 c 0.10418,-0.67586 0.32082,-2.04799 0.48141,-3.04918 0.1606,-1.00118 0.39971,-2.4939 0.53134,-3.31715 l 0.23934,-1.49681 0.27569,-0.0517 c 0.15162,-0.0285 0.38708,-0.14545 0.52323,-0.26002 0.13615,-0.11456 0.28015,-0.2071 0.31999,-0.20565 0.0399,10e-4 1.86315,0.7844 4.05178,1.73988 z m 14.38446,-1.43878 c 0.13917,0.36267 0.0685,0.42971 -0.64729,0.61445 -1.28281,0.33105 -2.39047,0.59306 -2.41281,0.57072 -0.0122,-0.0122 0.63529,-0.30035 1.43877,-0.64043 0.80348,-0.34008 1.48545,-0.63179 1.5155,-0.64825 0.03,-0.0165 0.0777,0.0301 0.10583,0.10351 z m -35.12779,0.33527 c 0.8382,0.0597 1.66636,0.11177 1.84036,0.11575 0.27367,0.006 0.33208,0.0444 0.43281,0.2824 0.13107,0.3097 0.34992,0.52526 0.61511,0.60586 0.2274,0.0691 0.28503,0.49746 0.28583,2.12464 l 5.8e-4,1.18533 -0.23268,0.13367 c -0.27038,0.15531 -0.13744,0.25472 -2.94201,-2.19993 -0.1397,-0.12227 -0.79693,-0.69297 -1.4605,-1.26821 -0.66358,-0.57525 -1.2065,-1.06044 -1.2065,-1.07821 0,-0.0546 1.06959,-0.015 2.667,0.0987 z m -1.905,0.90513 c 1.48689,1.30777 1.50062,1.31977 2.15769,1.88485 0.32488,0.2794 0.66763,0.57803 0.76166,0.66362 0.094,0.0856 0.46862,0.40786 0.8324,0.71617 0.52321,0.44341 0.65172,0.59666 0.61499,0.73338 -0.0255,0.0951 -0.047,0.29365 -0.0476,0.44131 -0.001,0.26312 -0.0436,0.29183 -2.13088,1.43933 -1.17135,0.64397 -2.26672,1.24751 -2.43417,1.34118 -0.98848,0.55303 -1.77754,0.97268 -1.8289,0.97268 -0.0708,0 -0.0206,-0.55508 0.30398,-3.36148 0.13575,-1.17359 0.24682,-2.19491 0.24682,-2.26959 0,-0.11912 0.33476,-0.30933 0.86838,-0.4934 0.12898,-0.0445 0.094,-0.13307 -0.26383,-0.66758 l -0.41253,-0.61628 0.10757,-0.83153 c 0.0592,-0.45734 0.12073,-0.84322 0.13682,-0.85751 0.0161,-0.0143 0.5055,0.3929 1.08759,0.90485 z m 11.85358,-0.73582 c 0.11628,0.0643 0.31169,0.11836 0.43424,0.12001 0.25876,0.003 0.1751,-0.22015 2.00954,5.37128 1.02717,3.13086 1.09772,3.38677 0.96205,3.48981 -0.20905,0.15876 -0.36276,0.14335 -0.87702,-0.0879 -0.2501,-0.11249 -2.13113,-0.91791 -4.18006,-1.78983 -2.04893,-0.87192 -3.76716,-1.61793 -3.81827,-1.65781 -0.0511,-0.0399 -0.0961,-0.18457 -0.10002,-0.32154 -0.004,-0.13697 -0.0513,-0.33171 -0.10541,-0.43276 -0.0541,-0.10104 -0.0662,-0.21347 -0.027,-0.24983 0.0665,-0.0616 0.98516,-0.8279 4.01242,-3.34685 0.67297,-0.55998 1.28086,-1.06165 1.35084,-1.11484 0.0967,-0.0735 0.17802,-0.0686 0.33867,0.0203 z m -13.29421,0.48284 c -7.2e-4,0.15134 -0.0338,0.32641 -0.0735,0.38905 -0.11272,0.17785 -0.20179,-0.29454 -0.0936,-0.49662 0.12649,-0.23636 0.1686,-0.20925 0.16711,0.10757 z m 50.2649,0.67733 c 0.54161,0.55432 1.12906,1.29373 1.12906,1.42114 0,0.0534 -1.84612,-1.10385 -2.09913,-1.31589 -0.0573,-0.0481 0.27578,-0.63441 0.36043,-0.63441 0.0509,0 0.32526,0.23812 0.60964,0.52916 z m -0.0941,1.64298 c 0.50974,0.6331 1.09826,1.37015 1.30781,1.63788 0.20955,0.26773 0.56197,0.71726 0.78317,0.99895 l 0.40216,0.51217 v 1.01184 c 0,0.55652 -0.0225,1.12433 -0.05,1.26182 l -0.05,0.24996 -1.53751,0.27128 c -1.79223,0.31623 -1.80624,0.31698 -1.87484,0.10083 -0.0288,-0.0908 -0.18379,-0.24633 -0.34437,-0.34557 -0.33877,-0.20937 -0.33478,-0.17078 -0.16587,-1.60597 0.0685,-0.58208 0.2202,-1.98824 0.33709,-3.1248 0.11689,-1.13656 0.22445,-2.07839 0.23903,-2.09297 0.0146,-0.0146 0.44357,0.49149 0.95331,1.12458 z m -0.12443,-0.74779 c 0.12033,0.0781 0.56639,0.36702 0.99125,0.64206 l 0.77249,0.50008 0.2929,0.73181 c 0.30446,0.7607 0.48123,1.47015 0.3279,1.31603 -0.10179,-0.10232 -2.0868,-2.57957 -2.42538,-3.02683 -0.26901,-0.35536 -0.2671,-0.363 0.0408,-0.16315 z m -16.65663,-0.0117 c 0.0319,0.0319 0.21841,0.0795 0.41445,0.10583 l 0.35644,0.0478 0.72418,1.35467 c 0.3983,0.74506 1.13828,2.13571 1.64439,3.09033 0.50612,0.95462 1.01152,1.90215 1.12312,2.10563 0.20406,0.37205 0.2068,0.53039 0.006,0.37459 -0.13771,-0.10712 -2.22295,-1.81729 -4.20628,-3.4497 -1.42606,-1.17375 -1.53428,-1.28242 -1.4878,-1.49407 0.0285,-0.1295 -0.008,-0.36668 -0.0836,-0.54825 l -0.13371,-0.32001 0.70041,-0.65829 c 0.68004,-0.63914 0.82051,-0.7299 0.94187,-0.60855 z m -33.75423,1.69882 c -0.0268,0.17462 -0.17035,1.44145 -0.31898,2.81516 -0.20774,1.91993 -0.30073,2.52222 -0.40203,2.60382 -0.21222,0.17093 -0.29241,-0.004 -0.33432,-0.72759 -0.0285,-0.49204 -1.4e-4,-0.78637 0.10672,-1.10809 0.13777,-0.41479 0.13768,-0.46702 -0.002,-0.98218 -0.18204,-0.67251 -0.13094,-1.30657 0.15506,-1.92404 0.18545,-0.40039 0.6584,-0.99458 0.79164,-0.99458 0.0288,0 0.0305,0.14287 0.004,0.3175 z m 30.50355,0.81886 c 0.0922,0.17233 -0.1007,0.46977 -2.28733,3.52642 -2.93248,4.09928 -2.64486,3.73523 -2.93302,3.71244 -0.49709,-0.0393 -0.71752,0.0138 -0.92728,0.22359 -0.18184,0.18184 -0.25292,0.2039 -0.44065,0.13675 -0.32196,-0.11515 -5.02561,-2.11756 -5.17502,-2.20308 -0.0688,-0.0394 -0.14947,-0.19037 -0.17914,-0.33548 l -0.054,-0.26383 1.23747,-0.52055 c 0.68061,-0.2863 1.59943,-0.67377 2.04181,-0.86103 0.44238,-0.18727 1.12818,-0.47165 1.524,-0.63195 0.39582,-0.1603 1.15782,-0.47675 1.69333,-0.70321 0.7841,-0.33159 3.87834,-1.6318 5.1337,-2.15721 0.24522,-0.10262 0.27301,-0.0968 0.36609,0.0771 z m 2.58846,0.83051 c 1.12909,0.92286 1.90531,1.56021 3.58509,2.94367 1.24228,1.02314 1.28286,1.06664 1.22424,1.31234 -0.0569,0.23843 -0.0575,0.31986 -0.006,0.77051 0.0151,0.13213 -0.67895,0.88687 -2.70541,2.94216 -3.28931,3.33609 -3.28452,3.33363 -3.31731,1.70611 -0.009,-0.46566 -0.0718,-2.46591 -0.13878,-4.445 -0.12794,-3.78196 -0.16456,-5.58682 -0.11391,-5.61439 0.0167,-0.009 0.1458,-0.0971 0.28692,-0.19552 l 0.25658,-0.17901 z m -2.02427,-0.41647 0.26432,0.0765 0.0554,2.08637 c 0.0697,2.62638 0.20674,6.88714 0.2591,8.05889 l 0.0399,0.89252 -0.27601,0.14864 -0.27601,0.14864 -2.58722,-1.58848 -2.58722,-1.58848 0.0407,-0.36119 c 0.028,-0.24794 -0.002,-0.42715 -0.0971,-0.57154 -0.0758,-0.11569 -0.13783,-0.24198 -0.13783,-0.28065 0,-0.0387 0.27181,-0.44958 0.60402,-0.91314 0.3322,-0.46357 0.76495,-1.07145 0.96165,-1.35085 0.67276,-0.9556 3.20102,-4.48706 3.33662,-4.66057 0.11295,-0.14453 0.17917,-0.16055 0.39969,-0.0967 z m -22.61631,0.86726 c 0.56509,0.26882 8.02418,3.42434 8.09453,3.42434 0.14385,0 0.0789,0.41097 -0.0724,0.45778 -0.13845,0.0428 -1.84872,0.42935 -4.92802,1.11369 -0.71968,0.15994 -1.37768,0.31275 -1.46221,0.33958 -0.11823,0.0375 -0.18458,-0.0259 -0.28755,-0.27497 -0.0736,-0.17806 -0.32049,-0.71888 -0.54862,-1.20181 -0.22812,-0.48294 -0.41477,-0.8886 -0.41477,-0.90147 0,-0.0129 -0.21401,-0.475 -0.47557,-1.02694 -0.83996,-1.77243 -0.80555,-1.66149 -0.58213,-1.87653 0.22135,-0.21304 0.32449,-0.22122 0.6767,-0.0537 z m -2.03509,0.0327 c 0.0321,0.0519 0.19771,0.16004 0.36803,0.24024 l 0.30967,0.14581 0.52006,2.79287 0.52006,2.79288 -0.33629,0.32636 c -0.20379,0.19777 -0.39148,0.31057 -0.47637,0.2863 -0.33733,-0.0965 -6.81106,-2.59701 -6.85953,-2.64957 -0.0296,-0.0321 -0.0107,-0.0739 0.042,-0.0929 0.0527,-0.019 0.49087,-0.31218 0.97366,-0.6516 2.82625,-1.98696 4.62026,-3.21584 4.74174,-3.24806 0.0762,-0.0202 0.16488,0.006 0.19697,0.0577 z m 1.08767,0.58215 c 0.0727,0.1816 0.59178,1.32312 1.1536,2.53671 0.56182,1.2136 1.02006,2.25722 1.01831,2.31917 -0.002,0.062 -0.12575,0.25573 -0.27557,0.43062 -0.26284,0.30685 -0.28275,0.31456 -0.56832,0.22 -0.16276,-0.0539 -0.33476,-0.10669 -0.38221,-0.11732 -0.0474,-0.0106 -0.15241,-0.39539 -0.23324,-0.855 -0.0808,-0.45961 -0.31406,-1.73101 -0.51831,-2.82533 -0.20424,-1.09432 -0.36123,-2.00077 -0.34886,-2.01435 0.0124,-0.0136 0.0819,0.1239 0.1546,0.3055 z m -2.90491,0.1214 c 0,0.0149 -0.49666,0.36871 -1.10368,0.78614 -0.60702,0.41744 -1.60546,1.11222 -2.21875,1.54397 l -1.11508,0.78498 -0.21093,-0.21092 c -0.116,-0.11601 -0.19241,-0.22942 -0.1698,-0.25204 0.0226,-0.0226 1.03823,-0.5931 2.25692,-1.26775 2.62854,-1.45513 2.56132,-1.41879 2.56132,-1.38438 z m 48.26,2.29229 c 0,0.12799 -0.33885,1.1279 -0.54299,1.60233 -0.0751,0.17462 -0.19182,0.3175 -0.2593,0.3175 -0.0675,0 -0.60491,-0.2286 -1.19431,-0.508 -0.58939,-0.2794 -1.10517,-0.508 -1.14618,-0.508 -0.0904,0 -0.0962,-0.25818 -0.009,-0.39549 0.0347,-0.0545 0.73096,-0.21645 1.54728,-0.35983 1.72382,-0.30277 1.60439,-0.29171 1.60439,-0.14851 z m -53.48641,0.61631 c 0.034,0.034 0.0617,0.12016 0.0617,0.19156 0,0.0953 -0.0251,0.10478 -0.0942,0.0356 -0.0518,-0.0518 -0.0796,-0.138 -0.0617,-0.19156 0.0179,-0.0536 0.0602,-0.0696 0.0942,-0.0356 z m 48.42898,0.37257 0.20986,0.32053 -0.61143,1.08837 c -0.33629,0.59861 -0.91246,1.61674 -1.28038,2.26251 -5.71623,10.03297 -5.84709,10.25625 -6.02658,10.28253 -0.23687,0.0347 -0.23608,0.0393 -0.39597,-2.31266 -0.0728,-1.07103 -0.26537,-3.81852 -0.4279,-6.10553 -0.16253,-2.28701 -0.29551,-4.19909 -0.29551,-4.24908 0,-0.05 0.15017,-0.17528 0.3337,-0.27844 0.29924,-0.16818 0.39422,-0.3026 0.54065,-0.76521 0.0367,-0.11593 0.25457,-0.14696 1.38377,-0.19709 0.73712,-0.0327 1.45452,-0.0722 1.59422,-0.0878 0.1397,-0.0156 1.1303,-0.0706 2.20133,-0.12236 1.07103,-0.0518 2.08617,-0.10809 2.25586,-0.12521 0.27793,-0.028 0.32933,6.6e-4 0.51838,0.28941 z m -47.91736,-0.10249 c 0.0985,0.10886 0.11939,0.21948 0.0737,0.39045 -0.0537,0.20074 -0.08,0.219 -0.16617,0.1152 -0.13666,-0.16467 -0.23192,-0.65755 -0.12709,-0.65755 0.0452,0 0.14399,0.0684 0.21959,0.1519 z m 50.22312,0.43582 c 1.53041,0.71251 1.82034,0.8637 1.82034,0.94929 0,0.0517 -0.0766,0.21791 -0.17017,0.36934 -0.0993,0.16073 -0.20529,0.55235 -0.25455,0.94088 -0.26051,2.05467 -1.12356,3.72724 -2.67424,5.1826 -0.68184,0.63993 -0.80767,0.80341 -0.98881,1.28465 -0.45854,1.21823 -1.39832,2.72225 -1.85969,2.97624 -0.22724,0.1251 -1.19102,0.56661 -3.51903,1.61208 -2.5634,1.15118 -2.59249,1.44201 0.37438,-3.7428 1.31901,-2.30505 3.07206,-5.37627 3.89568,-6.82494 l 1.49748,-2.63395 0.36671,0.0413 c 0.30339,0.0342 0.41708,0.003 0.65849,-0.18123 0.16048,-0.1224 0.30385,-0.21973 0.3186,-0.21628 0.0147,0.003 0.25541,0.11271 0.53481,0.24278 z m -33.45101,-0.0378 c 0.0299,0.11903 0.13723,0.29933 0.23857,0.40067 l 0.18426,0.18425 -1.31452,3.89876 -1.31452,3.89876 -0.3053,0.0173 -0.30529,0.0173 -0.95045,-1.79531 c -0.52275,-0.98742 -1.10133,-2.08105 -1.28572,-2.4303 -0.1844,-0.34925 -0.4597,-0.8636 -0.61179,-1.143 -0.57304,-1.05278 -0.91475,-1.73825 -0.8814,-1.76809 0.019,-0.017 1.42515,-0.34307 3.12484,-0.72464 1.69968,-0.38156 3.15258,-0.71139 3.22867,-0.73293 0.0944,-0.0267 0.1556,0.0296 0.19265,0.17722 z m -13.58132,0.93436 c 3.84837,1.47125 4.31213,1.65508 4.35657,1.727 0.0478,0.0773 -6.35172,0.194 -6.62553,0.12084 -0.28402,-0.0759 -0.62293,-0.79855 -0.67423,-1.43767 -0.0448,-0.55759 0.039,-1.47403 0.13411,-1.46662 0.0316,0.002 1.29566,0.47786 2.80908,1.05645 z m 16.42533,-0.55205 c 0.39582,0.17764 0.81492,0.36299 0.93133,0.41187 0.11642,0.0489 0.89747,0.37702 1.73567,0.72919 0.8382,0.35216 1.59491,0.66941 1.68158,0.705 0.11423,0.0469 0.1624,0.16393 0.17508,0.42533 0.0133,0.27447 0.0786,0.42171 0.27319,0.61633 l 0.25571,0.25571 -0.46467,1.22185 c -0.25556,0.67202 -0.48752,1.21886 -0.51544,1.21521 -0.0279,-0.004 -0.37463,-0.37909 -0.77045,-0.8343 -0.39582,-0.45522 -1.52929,-1.73278 -2.51883,-2.83904 -0.98954,-1.10625 -1.79917,-2.06432 -1.79917,-2.12903 0,-0.18069 0.23184,-0.13006 1.016,0.22188 z m -0.34678,0.99782 c 0.43791,0.49847 1.56186,1.7586 2.49766,2.80029 0.9358,1.04169 1.71644,1.93437 1.73475,1.98373 0.0183,0.0494 -0.0623,0.16862 -0.17909,0.26502 -0.6154,0.50782 -2.73469,2.22827 -2.90724,2.36009 -0.19122,0.14609 -0.21827,0.14634 -0.61422,0.006 l -0.4142,-0.14711 -0.27305,-1.61438 c -0.15018,-0.88791 -0.4584,-2.68118 -0.68494,-3.98504 -0.37712,-2.17054 -0.40021,-2.3796 -0.27354,-2.4765 0.0761,-0.0582 0.17869,-0.1041 0.228,-0.10198 0.0493,0.002 0.44795,0.4117 0.88587,0.91017 z m 19.28132,-0.65122 c 0.31553,0.19591 0.27449,-0.10662 0.58457,4.30919 0.11935,1.69969 0.30737,4.32859 0.41782,5.842 0.18444,2.52725 0.18967,2.7603 0.0641,2.8575 -0.0752,0.0582 -0.19264,0.10584 -0.26097,0.10584 -0.0683,0 -1.23263,-1.10178 -2.58732,-2.4484 -1.35469,-1.34662 -2.78469,-2.75209 -3.17779,-3.12327 l -0.71471,-0.67488 0.10067,-0.33602 c 0.10531,-0.35148 0.0108,-0.84026 -0.18763,-0.97065 -0.10726,-0.0705 -0.13414,-0.0418 3.08272,-3.28981 l 2.413,-2.43637 z m -20.75019,0.0311 c 0.0242,0.0773 0.84239,4.90261 1.20436,7.10302 l 0.1374,0.83528 -0.23109,0.16834 c -0.1271,0.0926 -0.29072,0.28365 -0.3636,0.42458 l -0.1325,0.25623 -0.81763,-0.0543 c -2.40856,-0.16007 -2.28191,-0.14094 -2.33503,-0.35258 -0.0269,-0.10711 -0.1427,-0.30624 -0.25738,-0.44253 l -0.2085,-0.24779 1.30914,-3.88044 c 0.72003,-2.13424 1.30915,-3.89021 1.30915,-3.90214 0,-0.0671 0.36293,0.0198 0.38568,0.0924 z m -7.55647,1.16729 c 0.13065,0.24408 0.46908,0.88193 0.75206,1.41745 0.28299,0.53552 0.78953,1.48802 1.12565,2.11667 1.40586,2.62937 1.59422,3.01124 1.37814,2.794 -0.22832,-0.22954 -2.17935,-2.44162 -3.41459,-3.87145 l -0.76786,-0.88882 0.16571,-0.33493 c 0.1416,-0.28619 0.15169,-0.38173 0.0694,-0.65652 -0.053,-0.17688 -0.0964,-0.36188 -0.0964,-0.41111 0,-0.10369 0.41115,-0.61085 0.49436,-0.60979 0.0308,3.9e-4 0.16287,0.20041 0.29352,0.4445 z m -2.55848,1.26194 c 0.13647,0.255 0.4239,0.48789 0.60643,0.49136 0.15089,0.003 0.18111,1.1561 0.18904,7.2136 l 10e-4,1.11477 -0.24374,0.0813 c -0.28653,0.0955 -0.0715,0.30419 -2.20675,-2.14147 -0.83346,-0.95462 -1.57556,-1.7962 -1.64911,-1.87018 -0.0736,-0.074 -0.32423,-0.35768 -0.55706,-0.63044 -0.23284,-0.27276 -0.84244,-0.97107 -1.35467,-1.55181 l -0.93133,-1.05589 -0.0299,-0.70683 c -0.0254,-0.60093 -0.0564,-0.72537 -0.20656,-0.83056 -0.0972,-0.068 -0.14724,-0.15318 -0.1113,-0.18918 0.0359,-0.036 1.4887,-0.0767 3.22836,-0.0904 l 3.16301,-0.025 z m 20.35493,1.34696 c 1.1176,0.69905 2.27058,1.41093 2.56217,1.58195 0.29159,0.17102 0.51682,0.3504 0.50051,0.39861 -0.0163,0.0482 -0.19773,0.0772 -0.40316,0.0644 -4.19871,-0.2618 -6.76585,-0.4513 -6.76585,-0.49944 0,-0.018 0.0902,-0.25064 0.20052,-0.51699 0.11028,-0.26636 0.32489,-0.81766 0.4769,-1.22512 0.26623,-0.71359 0.2861,-0.74084 0.54032,-0.74115 0.14516,-1.7e-4 0.38867,-0.0764 0.54114,-0.16933 0.15247,-0.093 0.28582,-0.16787 0.29633,-0.16647 0.0105,10e-4 0.93352,0.57451 2.05112,1.27357 z m -18.76749,-0.72413 c 0.0889,0.11306 0.40853,0.48279 0.71021,0.82162 0.30168,0.33883 1.13185,1.28281 1.84483,2.09773 0.71298,0.81491 1.38851,1.58227 1.50119,1.70523 0.19939,0.2176 0.20107,0.2309 0.063,0.49799 -0.0989,0.19122 -0.12657,0.38012 -0.0913,0.6231 l 0.0506,0.34868 -0.74113,0.47604 c -1.98622,1.2758 -3.17711,2.02162 -3.228,2.02162 -0.0309,0 -0.19474,-0.0942 -0.36411,-0.20926 l -0.30796,-0.20926 0.0131,-4.12015 0.0131,-4.12015 0.18741,-0.0694 c 0.14667,-0.0543 0.22254,-0.0247 0.3491,0.13619 z m -7.30685,1.85715 c 0.0449,0.0633 0.44363,0.52769 0.88601,1.03206 0.60969,0.69512 0.73286,0.87217 0.50899,0.73164 -0.45769,-0.28731 -1.05653,-0.92204 -1.31098,-1.38954 -0.21499,-0.39502 -0.26872,-0.63427 -0.084,-0.37416 z m 25.52401,0.94039 c 1.51342,0.10792 2.92312,0.20806 3.13267,0.22252 0.33347,0.023 0.38465,0.0527 0.41028,0.23795 0.0161,0.11642 0.067,0.25763 0.11312,0.3138 0.0988,0.1203 0.073,0.16945 -0.42371,0.80804 -0.36335,0.46714 -0.39444,0.48684 -0.76835,0.48715 -0.23394,1.9e-4 -0.49558,0.0649 -0.65467,0.1619 -0.25666,0.15651 -0.2729,0.15677 -0.51686,0.008 -0.31482,-0.19146 -1.89613,-1.0559 -3.07048,-1.67853 -0.48895,-0.25923 -1.0033,-0.54021 -1.143,-0.6244 -0.30724,-0.18515 -0.67132,-0.19302 2.921,0.0632 z m -3.57373,0.31231 c 0.0963,0.24447 0.635,1.52947 1.1971,2.85555 l 1.02201,2.41106 -0.19052,0.18497 -0.19053,0.18498 -2.413,-1.14073 c -1.32715,-0.62739 -2.51264,-1.17842 -2.63443,-1.2245 -0.19279,-0.0729 -0.22819,-0.1462 -0.27366,-0.56631 -0.047,-0.43453 -0.0326,-0.49936 0.14475,-0.65186 0.48909,-0.42045 3.08587,-2.49766 3.12238,-2.49766 0.0224,0 0.11959,0.20002 0.2159,0.4445 z m 2.60006,0.9504 2.37067,1.3048 -0.0176,0.27998 c -0.01,0.15399 0.0216,0.40305 0.0695,0.55346 0.0915,0.28707 0.055,0.33618 -1.5458,2.0848 -0.12495,0.13648 -0.18254,0.14412 -0.44162,0.0586 -0.16386,-0.0541 -0.36553,-0.0866 -0.44815,-0.0723 -0.15006,0.026 -0.22454,-0.1383 -2.18511,-4.82112 -0.16085,-0.38417 -0.26547,-0.69727 -0.23249,-0.69578 0.033,0.002 1.12676,0.58988 2.43062,1.30752 z m 6.77768,0.41017 c 0.28179,0.28779 1.7171,1.71389 3.18957,3.16909 1.47248,1.45521 2.65792,2.64584 2.63433,2.64584 -0.0452,0 -2.6496,-1.30881 -6.12458,-3.07784 l -2.07433,-1.05599 -0.0576,-0.39643 c -0.0317,-0.21804 -0.12059,-0.466 -0.19754,-0.55104 -0.13171,-0.14553 -0.11589,-0.18714 0.26929,-0.70848 0.29202,-0.39525 0.44558,-0.5373 0.53621,-0.49601 0.15387,0.0701 0.90807,0.0691 1.143,-0.002 0.1296,-0.0389 0.28957,0.0719 0.68168,0.47237 z m -28.92263,0.14534 c 0.34609,0.39412 1.1813,1.34524 1.85604,2.11359 0.67473,0.76835 1.32261,1.50202 1.43973,1.63039 0.36518,0.40027 0.13079,0.44752 -0.6462,0.13026 -0.62184,-0.2539 -0.69139,-0.30606 -0.7736,-0.58008 -0.063,-0.21015 -0.17389,-0.34149 -0.367,-0.43482 -0.96708,-0.4674 -1.85847,-1.67284 -2.10141,-2.84177 -0.16451,-0.79152 -0.0891,-0.79375 0.59244,-0.0176 z m 12.61995,1.27075 c 0.48895,0.0331 1.00705,0.0648 1.15133,0.0705 0.22528,0.009 0.28175,0.0598 0.39994,0.36073 0.0757,0.19269 0.11243,0.39271 0.0816,0.4445 -0.0308,0.0518 -0.40126,0.54679 -0.82327,1.10002 -0.42201,0.55323 -0.87227,1.15058 -1.00058,1.32746 -0.21409,0.29513 -0.25455,0.31549 -0.49169,0.24748 -0.14211,-0.0408 -0.30963,-0.0544 -0.37226,-0.0304 -0.12119,0.0465 -0.16497,-0.0565 -0.80066,-1.88461 l -0.35732,-1.02755 0.21744,-0.21744 c 0.1196,-0.11959 0.21744,-0.27632 0.21744,-0.34829 0,-0.14535 0.18806,-0.14983 1.778,-0.0423 z m -3.23533,0.56767 c 0.16936,0.14752 0.16837,0.15389 -0.22694,1.45774 l -0.39704,1.30958 -0.29124,0.0596 c -0.16376,0.0335 -0.37115,0.15977 -0.47379,0.28849 l -0.18254,0.22892 -1.25839,-0.23077 c -1.56793,-0.28754 -1.47006,-0.2543 -1.47006,-0.49923 0,-0.1757 0.25352,-0.36781 1.7145,-1.29919 1.92322,-1.22606 2.30763,-1.46328 2.37128,-1.46328 0.0243,0 0.12067,0.0667 0.21422,0.14817 z m 20.80367,1.80875 c 2.00236,1.02107 3.81211,1.94145 4.02166,2.04529 0.31498,0.15608 0.38546,0.23456 0.40671,0.4529 0.019,0.19547 -0.014,0.27576 -0.127,0.30896 -0.084,0.0247 -1.42906,0.44649 -2.98904,0.93737 l -2.83633,0.89252 -0.21962,-0.20983 c -0.12079,-0.1154 -0.35244,-0.23137 -0.51478,-0.25771 -0.32584,-0.0529 -0.23486,0.15139 -0.88088,-1.97775 -0.10596,-0.34925 -0.40476,-1.31331 -0.66399,-2.14236 l -0.47131,-1.50736 0.23229,-0.20446 c 0.12776,-0.11246 0.27039,-0.20213 0.31695,-0.19926 0.0466,0.003 1.72297,0.84063 3.72534,1.86169 z m -13.67367,-1.54879 c 0.25612,0.1259 0.94192,0.4518 1.524,0.72424 2.9788,1.39417 3.21733,1.51783 3.21733,1.66789 0,0.16424 -0.15459,0.20971 -0.97366,0.28639 -0.9893,0.0926 -7.11594,0.72174 -7.37497,0.75731 -0.22987,0.0316 -0.27993,5.3e-4 -0.39777,-0.24658 l -0.13481,-0.2827 0.77877,-1.00297 c 0.42833,-0.55164 0.91213,-1.17924 1.07511,-1.39466 l 0.29633,-0.39169 0.44243,0.0453 c 0.38638,0.0396 0.47951,0.017 0.73518,-0.17801 0.16102,-0.12282 0.30483,-0.22108 0.31958,-0.21835 0.0147,0.003 0.23636,0.10795 0.49248,0.23384 z m -6.1236,0.41492 c 0.10123,0.31568 0.32249,0.97379 0.49168,1.46248 0.30021,0.86708 0.30372,0.89168 0.14587,1.0195 -0.089,0.072 -0.20679,0.21513 -0.26183,0.31798 -0.0765,0.14304 -0.1765,0.18699 -0.42518,0.18699 -0.48518,0 -0.85427,-0.0922 -0.85427,-0.21329 0,-0.0591 -0.11013,-0.22535 -0.24473,-0.36944 l -0.24472,-0.26198 0.39983,-1.33447 c 0.36518,-1.21881 0.41758,-1.33653 0.60456,-1.3581 0.1839,-0.0212 0.22344,0.0348 0.38879,0.55033 z m 14.66647,-0.40674 c 0.10026,0.0635 0.0839,0.30793 -0.1065,1.58621 -0.12377,0.83113 -0.22473,1.53633 -0.22437,1.5671 3.7e-4,0.0308 -0.16944,0.1383 -0.37736,0.23894 l -0.37803,0.183 -0.38428,-0.26439 c -0.36891,-0.25382 -0.3822,-0.27751 -0.33195,-0.59177 0.0345,-0.21571 0.009,-0.41439 -0.0749,-0.5825 l -0.12728,-0.25513 0.85841,-0.97307 c 0.47213,-0.53518 0.89651,-0.97539 0.94308,-0.97825 0.0466,-0.003 0.138,0.0286 0.2032,0.0699 z m 0.63459,0.162 c 0.0214,0.0346 0.17456,0.51872 0.34038,1.07581 0.16583,0.55708 0.54404,1.79393 0.84049,2.74855 0.68637,2.2103 0.66403,2.24716 -0.71273,1.17593 l -0.8826,-0.68673 0.0273,-0.35393 c 0.022,-0.28569 -0.0132,-0.39445 -0.183,-0.56421 l -0.21029,-0.21029 0.20609,-1.31022 c 0.11335,-0.72062 0.22531,-1.43036 0.2488,-1.57721 0.0403,-0.2519 0.24064,-0.4351 0.32556,-0.2977 z m 15.24887,1.84078 c -0.82373,0.68643 -2.10946,1.30172 -3.25755,1.55893 -0.75048,0.16813 -0.9554,0.16403 -0.54222,-0.0109 0.13408,-0.0567 1.07215,-0.47727 2.08461,-0.9345 1.01247,-0.45723 1.86972,-0.82995 1.905,-0.82828 0.0353,0.002 -0.0501,0.0983 -0.18984,0.21471 z m -19.56144,1.04558 c 0.0717,0.13874 0.19312,0.28733 0.26973,0.3302 0.12468,0.0698 0.10766,0.15235 -0.16229,0.78738 -0.16587,0.39018 -0.67165,1.60477 -1.12396,2.69909 -0.45231,1.09431 -0.86505,2.01766 -0.91721,2.05187 -0.16788,0.11012 -1.52562,0.0688 -2.02658,-0.0617 -0.81646,-0.21267 -1.17672,-0.46044 -2.10038,-1.44455 -0.48319,-0.51482 -1.32544,-1.41386 -1.87165,-1.99785 l -0.99313,-1.06181 0.13295,-0.33844 0.13294,-0.33844 1.07184,-0.10245 c 1.30737,-0.12496 6.50628,-0.66072 7.05857,-0.72741 0.37719,-0.0455 0.40577,-0.0345 0.52917,0.20411 z m -15.2187,-0.0552 c 0.52206,0.0953 0.93139,0.20216 0.90963,0.23738 -0.0218,0.0352 -0.6394,0.0679 -1.37253,0.0726 l -1.33296,0.009 0.26593,-0.1638 c 0.14626,-0.0901 0.29139,-0.20498 0.3225,-0.25532 0.0685,-0.11082 0.0335,-0.11373 1.20743,0.10065 z m 17.31682,0.51999 c 0.32995,0.21576 0.40015,0.30632 0.40144,0.51782 8.5e-4,0.14098 0.0562,0.33438 0.12303,0.42977 0.11411,0.1629 0.0229,0.28957 -1.50283,2.08587 -1.55338,1.82892 -1.6457,1.92065 -2.11391,2.10042 -0.26927,0.1034 -0.50476,0.17282 -0.5233,0.15427 -0.0303,-0.0303 0.85161,-2.20771 1.73689,-4.28851 0.18388,-0.43221 0.33434,-0.82274 0.33434,-0.86783 0,-0.0451 0.14287,-0.0821 0.3175,-0.0823 0.17462,-1.7e-4 0.43213,-0.0702 0.57223,-0.15566 0.25467,-0.15531 0.25482,-0.15528 0.65461,0.10615 z m -15.86661,0.002 c -0.0944,0.10244 -1.67666,0.62946 -1.70984,0.56952 -0.0171,-0.0309 -0.0562,-0.16103 -0.0868,-0.28909 -0.0523,-0.21893 -0.0386,-0.23283 0.22952,-0.23283 0.15684,0 0.58619,-0.0244 0.95411,-0.0541 0.36792,-0.0298 0.64377,-0.0268 0.61301,0.007 z m 2.71783,0.13052 c 0.24097,0.0365 0.30318,0.0904 0.36044,0.31222 0.0635,0.24588 0.43085,0.64303 0.66796,0.72207 0.0741,0.0247 0.0696,0.38596 -0.018,1.4686 -0.13243,1.63551 -0.0566,1.53901 -0.93375,1.18797 -1.0386,-0.41565 -1.28872,-0.78116 -1.42969,-2.08926 l -0.10588,-0.98247 0.35228,-0.35228 c 0.3646,-0.3646 0.40168,-0.37354 1.10667,-0.26685 z m -2.28997,0.28842 c 0.10696,0.11385 0.28095,0.2287 0.38665,0.25523 0.17631,0.0442 0.20099,0.12459 0.29862,0.97223 0.0585,0.5082 0.0826,0.9625 0.0535,1.00957 -0.0741,0.11992 -0.83675,-0.071 -1.36641,-0.34199 -0.23376,-0.11962 -0.60006,-0.40462 -0.814,-0.63334 -0.36457,-0.38976 -0.63065,-0.7751 -0.56702,-0.82117 0.0154,-0.0112 0.38998,-0.14695 0.83236,-0.30176 0.44238,-0.15482 0.84426,-0.29595 0.89306,-0.31363 0.0488,-0.0177 0.17624,0.061 0.2832,0.17486 z m 5.31771,1.73719 c 0.59604,0.63212 1.38794,1.47357 1.7598,1.86989 0.37185,0.39632 0.71365,0.74708 0.75954,0.77947 0.15543,0.1097 -0.0306,0.17481 -0.61995,0.21698 -0.44959,0.0322 -0.72729,-4.9e-4 -1.18406,-0.13922 -0.32819,-0.0997 -0.61994,-0.21884 -0.64833,-0.26478 -0.0284,-0.046 -0.29012,-0.0835 -0.5816,-0.0835 -0.29148,0 -0.72941,-0.0592 -0.97317,-0.13161 l -0.44319,-0.13162 0.0473,-0.35522 c 0.0543,-0.40711 0.21347,-2.30254 0.21478,-2.557 6.1e-4,-0.11912 0.088,-0.19707 0.29301,-0.26122 l 0.29214,-0.0914 z m 21.41306,-0.97166 c 0.0431,0.1124 -1.0267,1.44839 -1.27274,1.58938 -0.0569,0.0326 -0.39726,0.0957 -0.7564,0.14032 -0.47694,0.0592 -0.72653,0.13716 -0.92571,0.28908 -0.65299,0.49806 -2.04451,1.08834 -2.92281,1.23985 -1.12992,0.19492 -1.1167,0.19519 -1.1167,-0.0228 0,-0.15194 0.0772,-0.2287 0.33003,-0.328 0.39287,-0.15432 0.6211,-0.46981 0.64686,-0.89417 l 0.0188,-0.30967 2.86765,-0.90981 c 1.5772,-0.5004 2.91647,-0.911 2.97614,-0.91244 0.0597,-0.001 0.12936,0.0518 0.15487,0.11825 z m -8.7301,0.64401 c 0.8742,0.69602 0.96014,0.78987 0.80887,0.88336 -0.049,0.0303 -0.0904,0.23381 -0.092,0.45225 l -0.003,0.39717 -1.60827,0.96349 -1.60828,0.96349 -0.88966,-0.0396 c -0.48932,-0.0218 -0.92411,-0.0743 -0.96621,-0.11682 -0.082,-0.0828 -0.0573,-0.12116 1.63765,-2.53259 0.80606,-1.14682 1.11816,-1.52796 1.26104,-1.54002 0.10444,-0.009 0.28513,-0.036 0.40155,-0.0604 0.17035,-0.0357 0.37692,0.0872 1.05826,0.62966 z m 9.22874,-0.25688 c 0.0931,0.04 0.27411,0.0754 0.40216,0.0787 0.286,0.007 0.2988,0.12816 0.0321,0.30291 -0.26378,0.17284 -1.60406,0.72047 -1.65024,0.67429 -0.0449,-0.0449 0.91329,-1.14276 0.9903,-1.13463 0.031,0.003 0.13254,0.0387 0.22568,0.0787 z m -12.93973,2.21528 c -0.30955,0.45006 -0.64895,0.95327 -0.75421,1.11825 -0.19176,0.30054 -0.34834,0.37951 -0.44437,0.22413 -0.0282,-0.0456 0.29806,-0.49333 0.72506,-0.99483 1.06286,-1.24834 1.1239,-1.29313 0.47352,-0.34755 z m 4.80537,0.16042 c 0.0896,0.0904 0.21347,0.1643 0.27517,0.1643 0.0693,0 0.11219,0.10163 0.11219,0.2661 v 0.2661 l -0.85389,-0.0588 c -0.53232,-0.0367 -0.89216,-0.027 -0.95552,0.0255 -0.12289,0.10199 -1.12097,0.60173 -1.20178,0.60173 -0.0315,0 0.48089,-0.32385 1.13872,-0.71966 0.65784,-0.39582 1.22443,-0.7174 1.2591,-0.71464 0.0347,0.003 0.13638,0.079 0.22601,0.16934 z"
           id="path12"
           clip-path="url(#clipPath45)"
           transform="matrix(0.13326615,0,0,0.11845974,157.74965,280.91174)" /></g></g></g></svg>
